<svg width="23" height="15" viewBox="0 0 23 15" fill="none" xmlns="http://www.w3.org/2000/svg">
<path d="M21.5 6.5C22.0523 6.5 22.5 6.94772 22.5 7.5C22.5 8.05228 22.0523 8.5 21.5 8.5V7.5V6.5ZM0.792892 8.20711C0.402369 7.81658 0.402369 7.18342 0.792892 6.79289L7.15685 0.428932C7.54738 0.0384078 8.18054 0.0384078 8.57107 0.428932C8.96159 0.819457 8.96159 1.45262 8.57107 1.84315L2.91421 7.5L8.57107 13.1569C8.96159 13.5474 8.96159 14.1805 8.57107 14.5711C8.18054 14.9616 7.54738 14.9616 7.15685 14.5711L0.792892 8.20711ZM21.5 7.5V8.5H1.5V7.5V6.5H21.5V7.5Z" fill="#F9F9F9"/>
</svg>
