<svg width="23" height="15" viewBox="0 0 23 15" fill="none" xmlns="http://www.w3.org/2000/svg">
<path d="M1.5 6.5C0.947715 6.5 0.5 6.94772 0.5 7.5C0.5 8.05228 0.947715 8.5 1.5 8.5V7.5V6.5ZM22.2071 8.20711C22.5976 7.81658 22.5976 7.18342 22.2071 6.79289L15.8431 0.428932C15.4526 0.0384078 14.8195 0.0384078 14.4289 0.428932C14.0384 0.819457 14.0384 1.45262 14.4289 1.84315L20.0858 7.5L14.4289 13.1569C14.0384 13.5474 14.0384 14.1805 14.4289 14.5711C14.8195 14.9616 15.4526 14.9616 15.8431 14.5711L22.2071 8.20711ZM1.5 7.5V8.5H21.5V7.5V6.5H1.5V7.5Z" fill="#F9F9F9"/>
</svg>
