<svg width="25" height="25" viewBox="0 0 25 25" fill="none" xmlns="http://www.w3.org/2000/svg">
<path d="M24.9594 18.3919C24.0045 14.3221 21.0317 8.65186 12.0404 7.45397V3.86522C12.0404 3.11709 11.5873 2.443 10.8957 2.15778C10.204 1.87202 9.40817 2.03218 8.87998 2.56202L0.715759 10.7668C-0.238058 11.7256 -0.238606 13.2745 0.715211 14.2333L8.87998 22.4381C9.40707 22.9679 10.2046 23.1281 10.8962 22.8423C11.5879 22.5565 12.0409 21.8824 12.0409 21.1349V17.6624C15.1086 17.6662 19.531 18.0699 22.6771 20.028C23.1999 20.3538 23.8663 20.3324 24.3665 19.9726C24.8656 19.615 25.1004 18.9908 24.9594 18.3919Z" fill="black"/>
</svg>
