<svg width="25" height="25" viewBox="0 0 25 25" fill="none" xmlns="http://www.w3.org/2000/svg">
<path d="M18.5 19L18.501 22H6.5V19H18.5ZM23 16.5H22.5V23.5C22.4983 23.6707 22.4671 23.8399 22.4079 24H22.5C22.8977 23.9996 23.279 23.8414 23.5602 23.5602C23.8414 23.279 23.9996 22.8977 24 22.5V17.5C23.9997 17.2349 23.8942 16.9807 23.7067 16.7933C23.5193 16.6058 23.2651 16.5003 23 16.5ZM2.5 23.5V16.5H2C1.73489 16.5003 1.48073 16.6058 1.29327 16.7933C1.10581 16.9807 1.00034 17.2349 1 17.5V22.5C1.00043 22.8977 1.15861 23.279 1.43982 23.5602C1.72103 23.8414 2.10231 23.9996 2.5 24H2.59216C2.53288 23.8399 2.5017 23.6707 2.5 23.5ZM21.5 9.5V23.5C21.5 23.5657 21.4871 23.6307 21.462 23.6914C21.4369 23.7521 21.4001 23.8072 21.3536 23.8536C21.3072 23.9001 21.2521 23.9369 21.1914 23.962C21.1307 23.9871 21.0657 24 21 24H4C3.93433 24 3.86929 23.9871 3.80861 23.962C3.74793 23.9369 3.6928 23.9001 3.64636 23.8536C3.59993 23.8072 3.5631 23.7521 3.53798 23.6914C3.51287 23.6307 3.49996 23.5657 3.5 23.5V9.5C3.50116 9.1139 3.59211 8.73337 3.76567 8.38847C3.93922 8.04358 4.19062 7.74378 4.5 7.51278V14C4.50078 14.6628 4.76442 15.2982 5.23309 15.7669C5.70176 16.2356 6.3372 16.4992 7 16.5H18C18.6628 16.4992 19.2982 16.2356 19.7669 15.7669C20.2356 15.2982 20.4992 14.6628 20.5 14V7.51278C20.8094 7.74378 21.0608 8.04358 21.2343 8.38847C21.4079 8.73337 21.4988 9.1139 21.5 9.5ZM19.5 19C19.4997 18.7349 19.3942 18.4807 19.2067 18.2933C19.0193 18.1058 18.7651 18.0003 18.5 18H6.5C6.23489 18.0003 5.98073 18.1058 5.79327 18.2933C5.60581 18.4807 5.50034 18.7349 5.5 19V22C5.50034 22.2651 5.60581 22.5193 5.79327 22.7067C5.98073 22.8942 6.23489 22.9997 6.5 23H18.5C18.7651 22.9997 19.0193 22.8942 19.2067 22.7067C19.3942 22.5193 19.4997 22.2651 19.5 22V19ZM18 3.5C18.1679 3.50001 18.3355 3.51694 18.5 3.55053V2C18.4997 1.73488 18.3942 1.4807 18.2068 1.29323C18.0193 1.10576 17.7651 1.0003 17.5 1H15.5C15.2349 1.0003 14.9807 1.10576 14.7932 1.29323C14.6058 1.4807 14.5003 1.73488 14.5 2V3.5H18ZM7 3.5H10.5V2C10.4997 1.73488 10.3942 1.4807 10.2068 1.29323C10.0193 1.10576 9.76512 1.0003 9.5 1H7.5C7.23488 1.0003 6.9807 1.10576 6.79323 1.29323C6.60576 1.4807 6.5003 1.73488 6.5 2V3.55053C6.66455 3.51694 6.83206 3.50001 7 3.5ZM19.5 6V14C19.4996 14.3977 19.3414 14.779 19.0602 15.0602C18.779 15.3414 18.3977 15.4996 18 15.5H7C6.60231 15.4996 6.22103 15.3414 5.93982 15.0602C5.65861 14.779 5.50043 14.3977 5.5 14V6C5.50043 5.60231 5.65861 5.22103 5.93982 4.93982C6.22103 4.65861 6.60231 4.50043 7 4.5H18C18.3977 4.50043 18.779 4.65861 19.0602 4.93982C19.3414 5.22103 19.4996 5.60231 19.5 6ZM17.5 10C17.5 9.93433 17.4871 9.86931 17.462 9.80864C17.4369 9.74797 17.4 9.69284 17.3536 9.64641C17.3072 9.59998 17.252 9.56315 17.1914 9.53803C17.1307 9.5129 17.0657 9.49998 17 9.5H8C7.86739 9.5 7.74021 9.55268 7.64645 9.64645C7.55268 9.74021 7.5 9.86739 7.5 10C7.5 10.1326 7.55268 10.2598 7.64645 10.3536C7.74021 10.4473 7.86739 10.5 8 10.5H15V11C15 11.1326 15.0527 11.2598 15.1464 11.3536C15.2402 11.4473 15.3674 11.5 15.5 11.5C15.6326 11.5 15.7598 11.4473 15.8536 11.3536C15.9473 11.2598 16 11.1326 16 11V10.5H17C17.0657 10.5 17.1307 10.4871 17.1914 10.462C17.252 10.4369 17.3072 10.4 17.3536 10.3536C17.4 10.3072 17.4369 10.252 17.462 10.1914C17.4871 10.1307 17.5 10.0657 17.5 10ZM18.5 7.5C18.5 7.43433 18.4871 7.36931 18.462 7.30864C18.4369 7.24797 18.4 7.19284 18.3536 7.14641C18.3072 7.09998 18.252 7.06315 18.1914 7.03803C18.1307 7.0129 18.0657 6.99998 18 7H7C6.86739 7 6.74021 7.05268 6.64645 7.14645C6.55268 7.24021 6.5 7.36739 6.5 7.5C6.5 7.63261 6.55268 7.75979 6.64645 7.85355C6.74021 7.94732 6.86739 8 7 8H18C18.0657 8.00002 18.1307 7.9871 18.1914 7.96197C18.252 7.93685 18.3072 7.90002 18.3536 7.85359C18.4 7.80716 18.4369 7.75203 18.462 7.69136C18.4871 7.63069 18.5 7.56567 18.5 7.5Z" fill="black"/>
</svg>
