<svg width="25" height="26" viewBox="0 0 25 26" fill="none" xmlns="http://www.w3.org/2000/svg">
<g clip-path="url(#clip0_197_675)">
<path d="M24.7959 7.43354C24.6506 7.22729 24.4139 7.10386 24.1615 7.10386H7.58105L6.32559 2.77573C5.8334 1.07105 4.66387 0.887451 4.18418 0.887451H0.837305C0.408398 0.887451 0.0615234 1.23511 0.0615234 1.66323C0.0615234 2.09136 0.40918 2.43901 0.837305 2.43901H4.1834C4.28965 2.43901 4.6123 2.43901 4.83262 3.19995L9.15059 19.0679C9.24434 19.4023 9.5498 19.6335 9.89746 19.6335H20.4436C20.7709 19.6335 21.0631 19.4289 21.1732 19.1203L24.8904 8.14136C24.9764 7.90386 24.9404 7.63901 24.7951 7.43276L24.7959 7.43354ZM19.8982 18.0828H10.4873L8.01777 8.6562H23.0592L19.8982 18.0828ZM18.3592 21.2062C17.2803 21.2062 16.4061 22.0804 16.4061 23.1593C16.4061 24.2382 17.2803 25.1124 18.3592 25.1124C19.4381 25.1124 20.3123 24.2382 20.3123 23.1593C20.3123 22.0804 19.4381 21.2062 18.3592 21.2062ZM11.3279 21.2062C10.249 21.2062 9.3748 22.0804 9.3748 23.1593C9.3748 24.2382 10.249 25.1124 11.3279 25.1124C12.4068 25.1124 13.2811 24.2382 13.2811 23.1593C13.2811 22.0804 12.4068 21.2062 11.3279 21.2062Z" fill="white"/>
</g>
<defs>
<clipPath id="clip0_197_675">
<rect width="25" height="25" fill="white" transform="translate(0 0.5)"/>
</clipPath>
</defs>
</svg>
