<svg width="25" height="25" viewBox="0 0 25 25" fill="none" xmlns="http://www.w3.org/2000/svg">
<g clip-path="url(#clip0_895_1063)">
<path d="M19.3026 17.3018C20.613 17.3018 21.676 18.3645 21.676 19.6748C21.676 20.9858 20.613 22.0485 19.3026 22.0485C17.9919 22.0485 16.9292 20.9858 16.9292 19.6748C16.9292 18.3645 17.9919 17.3018 19.3026 17.3018ZM19.3026 20.7435C19.8925 20.7435 20.3706 20.265 20.3706 19.6748C20.3706 19.0853 19.8925 18.6072 19.3026 18.6072C18.7128 18.6072 18.2347 19.0853 18.2347 19.6748C18.2347 20.265 18.7128 20.7435 19.3026 20.7435Z" fill="black"/>
<path d="M5.2832 17.3018C6.59356 17.3018 7.65625 18.3645 7.65625 19.6748C7.65625 20.9858 6.59356 22.0485 5.2832 22.0485C3.97251 22.0485 2.90986 20.9858 2.90986 19.6748C2.90986 18.3645 3.97251 17.3018 5.2832 17.3018ZM5.2832 20.7435C5.87271 20.7435 6.35083 20.265 6.35083 19.6748C6.35083 19.0853 5.87271 18.6072 5.2832 18.6072C4.69341 18.6072 4.21528 19.0853 4.21528 19.6748C4.21528 20.265 4.69341 20.7435 5.2832 20.7435Z" fill="black"/>
<path d="M15.2282 6.28027H20.581C20.7548 6.28027 20.9207 6.35752 21.0316 6.49175L24.8637 11.0896C24.9519 11.1946 25 11.3277 25 11.4655V15.4984V17.6073C25 17.9319 24.7369 18.1946 24.4126 18.1946H22.6136C22.0459 16.93 20.7766 16.045 19.3025 16.045C17.8281 16.045 16.5592 16.93 15.9915 18.1946H14.6404V6.86768C14.6405 6.54302 14.904 6.28027 15.2282 6.28027ZM22.8549 11.5259C22.8549 11.3868 22.8072 11.2519 22.7193 11.144L20.2729 8.13164C20.1577 7.9897 19.9848 7.90752 19.8025 7.90752H17.4059C17.0715 7.90752 16.8002 8.17871 16.8002 8.51353V11.932C16.8002 12.2665 17.0715 12.5377 17.4059 12.5377H22.2493C22.5838 12.5377 22.855 12.2665 22.855 11.932L22.8549 11.5259Z" fill="black"/>
<path d="M13.1087 16.5425C13.2914 16.5425 13.439 16.6904 13.439 16.873V17.8644C13.439 18.0468 13.2914 18.1946 13.1087 18.1946H8.5938C8.28218 17.5008 7.76021 16.924 7.1085 16.5425H13.1087Z" fill="black"/>
<path d="M0.37207 16.5425H3.45752C2.80552 16.924 2.2835 17.5008 1.97222 18.1946H0.372022C0.189356 18.1946 0.0414548 18.0468 0.0414548 17.8644V16.873C0.0415037 16.6904 0.189404 16.5425 0.37207 16.5425Z" fill="black"/>
<path d="M0.70471 2.95142H12.6932C13.0821 2.95142 13.3976 3.26685 13.3976 3.6561V14.7256C13.3976 15.1148 13.0821 15.4303 12.6932 15.4303H0.70471C0.315501 15.4303 2.28882e-05 15.1148 2.28882e-05 14.7256V3.6561C2.28882e-05 3.26685 0.315501 2.95142 0.70471 2.95142ZM2.62356 6.54731H10.7737C10.9564 6.54731 11.1043 6.39907 11.1043 6.21709V5.5563C11.1043 5.37363 10.9564 5.22573 10.7737 5.22573H2.62356C2.44119 5.22573 2.29333 5.37363 2.29333 5.5563V6.21709C2.29333 6.39907 2.44119 6.54731 2.62356 6.54731ZM10.7737 8.53008H2.62356C2.44119 8.53008 2.29333 8.67759 2.29333 8.8603V9.52144C2.29333 9.70342 2.44119 9.85166 2.62356 9.85166H10.7737C10.9564 9.85166 11.1043 9.70342 11.1043 9.52144V8.8603C11.1043 8.67759 10.9564 8.53008 10.7737 8.53008ZM10.7737 11.8344H2.62356C2.44119 11.8344 2.29333 11.9819 2.29333 12.1646V12.8254C2.29333 13.0074 2.44119 13.156 2.62356 13.156H10.7737C10.9564 13.156 11.1043 13.0073 11.1043 12.8254V12.1646C11.1043 11.9819 10.9564 11.8344 10.7737 11.8344Z" fill="black"/>
</g>
<defs>
<clipPath id="clip0_895_1063">
<rect width="25" height="25" fill="white" transform="matrix(-1 0 0 1 25 0)"/>
</clipPath>
</defs>
</svg>
