<svg width="18" height="23" viewBox="0 0 18 23" fill="none" xmlns="http://www.w3.org/2000/svg">
<path fill-rule="evenodd" clip-rule="evenodd" d="M9 6.46875C7.80903 6.46875 6.84375 7.43403 6.84375 8.625C6.84375 9.81597 7.80903 10.7812 9 10.7812C10.191 10.7812 11.1562 9.81597 11.1562 8.625C11.1562 7.43403 10.191 6.46875 9 6.46875ZM9 12.2187C7.01553 12.2187 5.40625 10.6102 5.40625 8.625C5.40625 6.63981 7.01553 5.03125 9 5.03125C10.9845 5.03125 12.5937 6.63981 12.5937 8.625C12.5937 10.6102 10.9845 12.2187 9 12.2187ZM9 0C4.23684 0 0.375 3.86184 0.375 8.625C0.375 12.2317 7.56609 23.0079 9 23C10.4116 23.0079 17.625 12.1828 17.625 8.625C17.625 3.86184 13.7632 0 9 0Z" fill="#E8364B"/>
</svg>
