<svg width="92" height="36" viewBox="0 0 92 36" fill="none" xmlns="http://www.w3.org/2000/svg">
<path d="M0 20.7101V6.43192L15.4866 0L30.6921 6.43192V20.7444C30.6921 22.6321 29.8382 24.4185 28.3691 25.604L15.4866 36L2.36654 25.6045C0.87164 24.42 0 22.6173 0 20.7101ZM0.437121 20.7101C0.437121 22.4838 1.24772 24.1603 2.63797 25.2619L15.4841 35.4403L28.0946 25.2638C29.4608 24.1613 30.255 22.5 30.255 20.7444V6.72158L15.485 0.473954L0.437121 6.72366V20.7101Z" fill="#EF3137"/>
<path d="M2.68501 19.6869C2.68501 21.34 3.44743 22.9007 4.75133 23.9169L15.5436 32.3276L26.1313 23.924C27.4148 22.9052 28.1629 21.3562 28.1629 19.7176V19.6869H29.9114V19.7176C29.9114 21.8897 28.9196 23.943 27.2183 25.2934L15.5535 34.5521L3.67652 25.296C1.9475 23.9485 0.936527 21.879 0.936523 19.6869H2.68501ZM29.9114 7.05829V12.6356H28.1629V8.22458L15.5455 2.97517L2.68501 8.22866V12.6356H0.936523V7.0542L15.5516 1.08398L29.9114 7.05829Z" fill="white"/>
<path d="M0.936523 11.3652L24.7908 14.7461V21.8208L18.149 23.4173L1.03019 20.576L0.936523 20.014V11.3652Z" fill="#DC0008"/>
<path d="M0.936523 11.8022L18.1091 14.706V16.5481L0.936523 13.5195V11.8022Z" fill="url(#paint0_linear_197_606)"/>
<path d="M0.936523 19.6704L18.1091 22.5117V24.4163L1.12386 21.3877L1.11316 21.3377C0.995731 20.7897 0.936523 20.2309 0.936523 19.6704Z" fill="url(#paint1_linear_197_606)"/>
<path d="M0.936523 16.7979L23.417 20.5716V21.1691L0.936523 17.3639V16.7979Z" fill="url(#paint2_linear_197_606)"/>
<path d="M0.936523 8.11792L28.1629 12.1269L18.1321 14.7372L0.936523 11.8162V8.11792Z" fill="#DC0008"/>
<path d="M18.1094 14.7059L29.9116 11.6772V13.4882L25.3602 14.7059V19.1083L29.9116 19.6391L29.6618 21.2627L18.1094 24.4162V22.5116L21.2061 21.7232C22.4865 21.3972 23.3827 20.2442 23.3827 18.9229C23.3827 17.0379 21.6069 15.6575 19.7802 16.1226L18.1094 16.548V14.7059Z" fill="white"/>
<path d="M68.9516 12.834L71.5347 8.27839H73.5008V15.462H71.6053V10.9L69.0288 15.462H67.0562V8.27839H68.9516V12.834ZM70.2689 7.47522C69.5792 7.47522 69.0202 7.29531 68.5918 6.93548C68.1635 6.57566 67.9493 6.10661 67.9493 5.52832H69.3307C69.3307 5.7939 69.4143 6.00594 69.5813 6.16444C69.7484 6.31865 69.9776 6.39575 70.2689 6.39575C70.5516 6.39575 70.7765 6.31865 70.9435 6.16444C71.1106 6.00594 71.1941 5.7939 71.1941 5.52832H72.582C72.582 6.10661 72.3678 6.57566 71.9395 6.93548C71.5154 7.29531 70.9585 7.47522 70.2689 7.47522Z" fill="white"/>
<path d="M62.5105 15.6034C61.7865 15.6034 61.159 15.4492 60.6278 15.1408C60.1009 14.8281 59.694 14.3954 59.407 13.8428C59.1243 13.286 58.9829 12.6391 58.9829 11.9024C58.9829 11.157 59.1243 10.508 59.407 9.95546C59.694 9.39859 60.1009 8.96595 60.6278 8.65753C61.159 8.34483 61.7865 8.18848 62.5105 8.18848C63.2387 8.18848 63.8662 8.34483 64.3931 8.65753C64.9243 8.96595 65.3312 9.39859 65.6139 9.95546C65.9009 10.508 66.0444 11.157 66.0444 11.9024C66.0444 12.6391 65.9009 13.286 65.6139 13.8428C65.3312 14.3954 64.9243 14.8281 64.3931 15.1408C63.8662 15.4492 63.2387 15.6034 62.5105 15.6034ZM62.5233 14.0484C62.8531 14.0484 63.1294 13.9563 63.3522 13.7722C63.5749 13.5837 63.742 13.3267 63.8534 13.0011C63.969 12.6756 64.0269 12.305 64.0269 11.8895C64.0269 11.4697 63.969 11.0992 63.8534 10.7779C63.742 10.4566 63.5749 10.2039 63.3522 10.0197C63.1294 9.83552 62.8531 9.74342 62.5233 9.74342C62.1892 9.74342 61.9086 9.83552 61.6816 10.0197C61.4588 10.2039 61.2896 10.4566 61.174 10.7779C61.0626 11.0992 61.0069 11.4697 61.0069 11.8895C61.0069 12.305 61.0626 12.6756 61.174 13.0011C61.2896 13.3267 61.4588 13.5837 61.6816 13.7722C61.9086 13.9563 62.1892 14.0484 62.5233 14.0484Z" fill="white"/>
<path d="M51.2822 18.1479V8.27843H53.2355V9.49283H53.3255C53.4155 9.29579 53.544 9.0966 53.711 8.89527C53.8781 8.69394 54.0966 8.52688 54.3664 8.39409C54.6363 8.25701 54.9704 8.18848 55.3688 8.18848C55.8957 8.18848 56.3776 8.32555 56.8145 8.5997C57.2557 8.86957 57.6091 9.27865 57.8747 9.82695C58.1403 10.3753 58.2731 11.0606 58.2731 11.8831C58.2731 12.6798 58.1446 13.3545 57.8875 13.9071C57.6305 14.4554 57.2814 14.8709 56.8402 15.1536C56.4033 15.4363 55.9107 15.5777 55.3624 15.5777C54.9768 15.5777 54.6491 15.5134 54.3793 15.3849C54.1094 15.2564 53.8888 15.0958 53.7175 14.903C53.5504 14.706 53.4197 14.5089 53.3255 14.3119H53.2677V18.1479H51.2822ZM54.7327 13.997C55.0582 13.997 55.3324 13.9071 55.5551 13.7272C55.7779 13.5473 55.9471 13.2988 56.0627 12.9818C56.1784 12.6606 56.2362 12.2922 56.2362 11.8767C56.2362 11.4611 56.1784 11.097 56.0627 10.7843C55.9514 10.4674 55.7843 10.2189 55.5615 10.039C55.3388 9.85908 55.0625 9.76913 54.7327 9.76913C54.4114 9.76913 54.1372 9.85694 53.9102 10.0326C53.6875 10.2039 53.5161 10.4481 53.3962 10.7651C53.2805 11.0778 53.2227 11.4483 53.2227 11.8767C53.2227 12.3007 53.2827 12.6713 53.4026 12.9883C53.5226 13.3052 53.6939 13.5537 53.9166 13.7336C54.1437 13.9092 54.4157 13.997 54.7327 13.997Z" fill="white"/>
<path d="M43.8574 9.84612V8.27832H50.3535V9.84612H48.0468V15.4619H46.1513V9.84612H43.8574Z" fill="white"/>
<path d="M38.9519 15.5904C38.1038 15.5904 37.3434 15.3976 36.6709 15.0121C35.9984 14.6266 35.4672 14.0676 35.0774 13.3351C34.6876 12.6026 34.4927 11.718 34.4927 10.6814C34.4927 9.63618 34.6876 8.74733 35.0774 8.01484C35.4715 7.27806 36.0048 6.71905 36.6773 6.33781C37.3541 5.95228 38.1123 5.75952 38.9519 5.75952C39.5088 5.75952 40.0249 5.83877 40.5004 5.99726C40.9759 6.15147 41.3957 6.3785 41.7598 6.67835C42.1282 6.97392 42.428 7.33803 42.6594 7.77067C42.8907 8.19903 43.0385 8.68951 43.1027 9.24209H41.0594C41.0209 8.98079 40.9438 8.74519 40.8281 8.5353C40.7168 8.3254 40.569 8.14763 40.3848 8.00199C40.2049 7.85635 39.9971 7.74497 39.7615 7.66787C39.5302 7.58648 39.2753 7.54578 38.9969 7.54578C38.5086 7.54578 38.0781 7.67001 37.7054 7.91846C37.337 8.16262 37.05 8.51816 36.8444 8.98507C36.643 9.4477 36.5424 10.0131 36.5424 10.6814C36.5424 11.3625 36.6452 11.9365 36.8508 12.4034C37.0564 12.866 37.3434 13.2151 37.7118 13.4507C38.0802 13.6863 38.5064 13.8041 38.9905 13.8041C39.2603 13.8041 39.5109 13.7677 39.7422 13.6949C39.9735 13.6221 40.1792 13.5171 40.3591 13.3801C40.539 13.243 40.6889 13.0759 40.8088 12.8789C40.9331 12.6775 41.0166 12.4484 41.0594 12.1914H43.1027C43.0513 12.6326 42.9207 13.0566 42.7108 13.4636C42.5052 13.8705 42.2246 14.2346 41.869 14.5559C41.5135 14.8729 41.0916 15.1256 40.6032 15.3141C40.1149 15.4983 39.5645 15.5904 38.9519 15.5904Z" fill="white"/>
<path d="M88.3596 27.7758C87.6271 27.7758 86.9974 27.6194 86.4705 27.3067C85.9436 26.9897 85.5388 26.5549 85.2561 26.0023C84.9734 25.4455 84.832 24.8029 84.832 24.0747C84.832 23.3379 84.9734 22.6911 85.2561 22.1343C85.5431 21.5774 85.9501 21.1426 86.4769 20.8299C87.0038 20.5172 87.6314 20.3608 88.3596 20.3608C88.985 20.3608 89.5311 20.4744 89.9981 20.7014C90.4693 20.9284 90.8419 21.2475 91.1161 21.6588C91.3902 22.07 91.5402 22.554 91.5659 23.1109H89.6896C89.6554 22.871 89.5825 22.6611 89.4712 22.4812C89.3598 22.3013 89.212 22.1621 89.0278 22.0636C88.8436 21.965 88.6294 21.9158 88.3853 21.9158C88.0769 21.9158 87.807 21.9993 87.5757 22.1664C87.3486 22.3292 87.1709 22.5712 87.0424 22.8924C86.9181 23.2094 86.856 23.595 86.856 24.049C86.856 24.5031 86.9181 24.8929 87.0424 25.2184C87.1709 25.544 87.3486 25.7924 87.5757 25.9638C87.807 26.1351 88.0769 26.2208 88.3853 26.2208C88.728 26.2208 89.0171 26.1137 89.2527 25.8995C89.4883 25.6811 89.634 25.3812 89.6896 25H91.5659C91.5359 25.5483 91.3881 26.0323 91.1225 26.4521C90.8569 26.8676 90.4907 27.1932 90.0238 27.4288C89.5568 27.6601 89.0021 27.7758 88.3596 27.7758Z" fill="white"/>
<path d="M77.1313 30.3202V20.4508H79.0847V21.6652H79.1746C79.2646 21.4682 79.3931 21.269 79.5602 21.0676C79.7272 20.8663 79.9457 20.6992 80.2155 20.5665C80.4854 20.4294 80.8195 20.3608 81.2179 20.3608C81.7448 20.3608 82.2267 20.4979 82.6636 20.7721C83.1048 21.0419 83.4582 21.451 83.7238 21.9993C83.9894 22.5476 84.1222 23.233 84.1222 24.0554C84.1222 24.8522 83.9937 25.5269 83.7367 26.0794C83.4796 26.6278 83.1305 27.0433 82.6893 27.326C82.2524 27.6087 81.7598 27.7501 81.2115 27.7501C80.826 27.7501 80.4983 27.6858 80.2284 27.5573C79.9585 27.4288 79.7379 27.2681 79.5666 27.0754C79.3995 26.8783 79.2689 26.6813 79.1746 26.4843H79.1168V30.3202H77.1313ZM80.5818 26.1694C80.9073 26.1694 81.1815 26.0794 81.4042 25.8995C81.627 25.7196 81.7962 25.4712 81.9118 25.1542C82.0275 24.8329 82.0853 24.4645 82.0853 24.049C82.0853 23.6335 82.0275 23.2694 81.9118 22.9567C81.8005 22.6397 81.6334 22.3913 81.4107 22.2114C81.1879 22.0314 80.9116 21.9415 80.5818 21.9415C80.2605 21.9415 79.9864 22.0293 79.7593 22.2049C79.5366 22.3763 79.3652 22.6204 79.2453 22.9374C79.1296 23.2501 79.0718 23.6207 79.0718 24.049C79.0718 24.4731 79.1318 24.8436 79.2517 25.1606C79.3717 25.4776 79.543 25.7261 79.7658 25.906C79.9928 26.0816 80.2648 26.1694 80.5818 26.1694Z" fill="white"/>
<path d="M70.9343 30.3201C70.6816 30.3244 70.4438 30.3073 70.2211 30.2687C70.0026 30.2301 69.8227 30.1809 69.6813 30.1209L70.1311 28.6366L70.1954 28.6495C70.5295 28.748 70.8143 28.7694 71.0499 28.7138C71.2898 28.6623 71.4719 28.4739 71.5961 28.1483L71.7118 27.8399L69.1416 20.4507H71.2299L72.7141 25.7259H72.7912L74.2948 20.4507H76.3959L73.6073 28.4118C73.4745 28.7973 73.2924 29.1335 73.0611 29.4205C72.8341 29.7075 72.5471 29.9282 72.2001 30.0824C71.8531 30.2409 71.4312 30.3201 70.9343 30.3201Z" fill="white"/>
<path d="M65.7458 27.7758C65.0133 27.7758 64.3836 27.6194 63.8567 27.3067C63.3299 26.9897 62.9251 26.5549 62.6423 26.0023C62.3596 25.4455 62.2183 24.8029 62.2183 24.0747C62.2183 23.3379 62.3596 22.6911 62.6423 22.1343C62.9293 21.5774 63.3363 21.1426 63.8632 20.8299C64.39 20.5172 65.0176 20.3608 65.7458 20.3608C66.3712 20.3608 66.9174 20.4744 67.3843 20.7014C67.8555 20.9284 68.2282 21.2475 68.5023 21.6588C68.7765 22.07 68.9264 22.554 68.9521 23.1109H67.0759C67.0416 22.871 66.9688 22.6611 66.8574 22.4812C66.746 22.3013 66.5982 22.1621 66.4141 22.0636C66.2299 21.965 66.0157 21.9158 65.7715 21.9158C65.4631 21.9158 65.1932 21.9993 64.9619 22.1664C64.7349 22.3292 64.5571 22.5712 64.4286 22.8924C64.3044 23.2094 64.2423 23.595 64.2423 24.049C64.2423 24.5031 64.3044 24.8929 64.4286 25.2184C64.5571 25.544 64.7349 25.7924 64.9619 25.9638C65.1932 26.1351 65.4631 26.2208 65.7715 26.2208C66.1142 26.2208 66.4033 26.1137 66.6389 25.8995C66.8745 25.6811 67.0202 25.3812 67.0759 25H68.9521C68.9221 25.5483 68.7743 26.0323 68.5087 26.4521C68.2432 26.8676 67.8769 27.1932 67.41 27.4288C66.9431 27.6601 66.3883 27.7758 65.7458 27.7758Z" fill="white"/>
<path d="M58.238 27.7758C57.5012 27.7758 56.8651 27.6258 56.3296 27.326C55.7942 27.0261 55.383 26.5999 55.096 26.0473C54.8132 25.4905 54.6719 24.8329 54.6719 24.0747C54.6719 23.3379 54.8132 22.6911 55.096 22.1343C55.383 21.5774 55.7856 21.1426 56.3039 20.8299C56.8265 20.5172 57.4391 20.3608 58.1416 20.3608C58.6171 20.3608 59.0604 20.4379 59.4717 20.5922C59.8829 20.7421 60.2427 20.9691 60.5511 21.2732C60.8595 21.5731 61.0994 21.9522 61.2708 22.4105C61.4421 22.8646 61.5278 23.3979 61.5278 24.0105V24.5502H55.4622V23.323H60.564L59.6387 23.6442C59.6387 23.2801 59.583 22.9631 59.4717 22.6933C59.3603 22.4234 59.1932 22.2156 58.9705 22.07C58.752 21.9201 58.48 21.8451 58.1544 21.8451C57.8289 21.8451 57.5526 21.9201 57.3256 22.07C57.1028 22.2199 56.9315 22.4234 56.8115 22.6804C56.6916 22.9374 56.6316 23.233 56.6316 23.5671V24.4345C56.6316 24.8244 56.7002 25.1585 56.8372 25.4369C56.9743 25.7111 57.1649 25.9231 57.4091 26.073C57.6575 26.2187 57.9424 26.2915 58.2637 26.2915C58.4864 26.2915 58.6878 26.2594 58.8677 26.1951C59.0476 26.1309 59.2018 26.0366 59.3303 25.9124C59.4631 25.7882 59.5616 25.6382 59.6259 25.4626L61.4635 25.5847C61.3736 26.0259 61.1851 26.4114 60.8981 26.7413C60.6154 27.0668 60.2491 27.3217 59.7993 27.5059C59.3496 27.6858 58.8291 27.7758 58.238 27.7758Z" fill="white"/>
<path d="M46.9712 30.3202V20.4508H48.9245V21.6652H49.0145C49.1044 21.4682 49.2329 21.269 49.4 21.0676C49.5671 20.8663 49.7855 20.6992 50.0554 20.5665C50.3253 20.4294 50.6594 20.3608 51.0577 20.3608C51.5846 20.3608 52.0665 20.4979 52.5035 20.7721C52.9447 21.0419 53.2981 21.451 53.5637 21.9993C53.8292 22.5476 53.962 23.233 53.962 24.0554C53.962 24.8522 53.8335 25.5269 53.5765 26.0794C53.3195 26.6278 52.9704 27.0433 52.5292 27.326C52.0922 27.6087 51.5996 27.7501 51.0513 27.7501C50.6658 27.7501 50.3381 27.6858 50.0682 27.5573C49.7984 27.4288 49.5778 27.2681 49.4064 27.0754C49.2394 26.8783 49.1087 26.6813 49.0145 26.4843H48.9566V30.3202H46.9712ZM50.4216 26.1694C50.7472 26.1694 51.0213 26.0794 51.2441 25.8995C51.4668 25.7196 51.636 25.4712 51.7517 25.1542C51.8673 24.8329 51.9252 24.4645 51.9252 24.049C51.9252 23.6335 51.8673 23.2694 51.7517 22.9567C51.6403 22.6397 51.4733 22.3913 51.2505 22.2114C51.0278 22.0314 50.7515 21.9415 50.4216 21.9415C50.1004 21.9415 49.8262 22.0293 49.5992 22.2049C49.3764 22.3763 49.2051 22.6204 49.0851 22.9374C48.9695 23.2501 48.9117 23.6207 48.9117 24.049C48.9117 24.4731 48.9716 24.8436 49.0916 25.1606C49.2115 25.4776 49.3829 25.7261 49.6056 25.906C49.8326 26.0816 50.1046 26.1694 50.4216 26.1694Z" fill="white"/>
<defs>
<linearGradient id="paint0_linear_197_606" x1="0.936523" y1="12.614" x2="18.1091" y2="15.549" gradientUnits="userSpaceOnUse">
<stop stop-color="#F78185"/>
<stop offset="0.640189" stop-color="#FDD4D6"/>
<stop offset="1" stop-color="#FCC8CA"/>
</linearGradient>
<linearGradient id="paint1_linear_197_606" x1="0.936523" y1="20.4822" x2="18.1091" y2="23.4172" gradientUnits="userSpaceOnUse">
<stop stop-color="#F78185"/>
<stop offset="0.640189" stop-color="#FDD4D6"/>
<stop offset="1" stop-color="#FCC8CA"/>
</linearGradient>
<linearGradient id="paint2_linear_197_606" x1="0.936523" y1="17.5456" x2="22.7845" y2="22.8527" gradientUnits="userSpaceOnUse">
<stop stop-color="#F78185"/>
<stop offset="0.640189" stop-color="#FDD4D6"/>
<stop offset="1" stop-color="#FCC8CA"/>
</linearGradient>
</defs>
</svg>
