<svg width="25" height="25" viewBox="0 0 25 25" fill="none" xmlns="http://www.w3.org/2000/svg">
<path d="M0.78125 18.75C0.78125 19.6094 1.48438 20.3125 2.34375 20.3125H22.6562C23.5156 20.3125 24.2188 19.6094 24.2188 18.75V9.375H0.78125V18.75ZM3.125 14.8438H12.5C12.9312 14.8438 13.2812 15.1938 13.2812 15.625C13.2812 16.0562 12.9312 16.4062 12.5 16.4062H3.125C2.69375 16.4062 2.34375 16.0562 2.34375 15.625C2.34375 15.1938 2.69375 14.8438 3.125 14.8438ZM3.125 17.1875H7.03125C7.4625 17.1875 7.8125 17.5375 7.8125 17.9688C7.8125 18.4 7.4625 18.75 7.03125 18.75H3.125C2.69375 18.75 2.34375 18.4 2.34375 17.9688C2.34375 17.5375 2.69375 17.1875 3.125 17.1875ZM24.2188 6.25V7.03125H0.78125V6.25C0.78125 5.39062 1.48438 4.6875 2.34375 4.6875H22.6562C23.5156 4.6875 24.2188 5.39062 24.2188 6.25Z" fill="#111918"/>
</svg>
