<svg width="25" height="26" viewBox="0 0 25 26" fill="none" xmlns="http://www.w3.org/2000/svg">
<path d="M5.85938 10.0703C5.85938 13.7227 8.84766 16.7109 12.5 16.7109C16.1523 16.7109 19.1406 13.7227 19.1406 10.0703C19.1406 6.41797 16.1523 3.42969 12.5 3.42969C8.84766 3.42969 5.85938 6.41797 5.85938 10.0703ZM17.5781 10.0703C17.5781 12.8633 15.293 15.1484 12.5 15.1484C9.70703 15.1484 7.42188 12.8633 7.42188 10.0703C7.42188 7.27734 9.70703 4.99219 12.5 4.99219C15.293 4.99219 17.5781 7.27734 17.5781 10.0703Z" fill="white"/>
<path d="M4.76562 22.3098C6.83594 20.2395 9.57031 19.1067 12.5 19.1067C15.4297 19.1067 18.1641 20.2395 20.2344 22.3098L21.3477 21.1965C18.9844 18.8528 15.8398 17.5442 12.5 17.5442C9.16016 17.5442 6.01563 18.8528 3.65234 21.1965L4.76562 22.3098Z" fill="white"/>
</svg>
