<svg width="40" height="40" viewBox="0 0 40 40" fill="none" xmlns="http://www.w3.org/2000/svg">
<path fill-rule="evenodd" clip-rule="evenodd" d="M15.1848 2.40054C14.6978 2.8156 14.4542 3.02316 14.1941 3.19748C13.5979 3.59708 12.9283 3.87442 12.2242 4.01344C11.917 4.0741 11.5981 4.09954 10.9602 4.15044C9.3574 4.27836 8.556 4.3423 7.88742 4.57846C6.34102 5.12466 5.12466 6.34102 4.57846 7.88742C4.3423 8.556 4.27836 9.3574 4.15044 10.9602C4.09954 11.5981 4.0741 11.917 4.01344 12.2242C3.87442 12.9283 3.59708 13.5979 3.19748 14.1941C3.02316 14.4542 2.81562 14.6977 2.40054 15.1848C1.35766 16.4086 0.836205 17.0204 0.530445 17.6602C-0.176815 19.14 -0.176815 20.86 0.530445 22.3398C0.836225 22.9796 1.35766 23.5914 2.40054 24.8152C2.81556 25.3022 3.02316 25.5458 3.19748 25.8058C3.59708 26.402 3.87442 27.0716 4.01344 27.7758C4.0741 28.083 4.09954 28.402 4.15044 29.0398C4.27836 30.6426 4.3423 31.444 4.57846 32.1126C5.12466 33.659 6.34102 34.8754 7.88742 35.4216C8.556 35.6576 9.3574 35.7216 10.9602 35.8496C11.5981 35.9004 11.917 35.926 12.2242 35.9866C12.9283 36.1256 13.5979 36.403 14.1941 36.8026C14.4542 36.9768 14.6977 37.1844 15.1848 37.5994C16.4086 38.6424 17.0204 39.1638 17.6602 39.4696C19.14 40.1768 20.86 40.1768 22.3398 39.4696C22.9796 39.1638 23.5914 38.6424 24.8152 37.5994C25.3022 37.1844 25.5458 36.9768 25.8058 36.8026C26.402 36.403 27.0716 36.1256 27.7758 35.9866C28.083 35.926 28.402 35.9004 29.0398 35.8496C30.6426 35.7216 31.444 35.6576 32.1126 35.4216C33.659 34.8754 34.8754 33.659 35.4216 32.1126C35.6576 31.444 35.7216 30.6426 35.8496 29.0398C35.9004 28.402 35.926 28.083 35.9866 27.7758C36.1256 27.0716 36.403 26.402 36.8026 25.8058C36.9768 25.5458 37.1844 25.3022 37.5994 24.8152C38.6424 23.5914 39.1638 22.9796 39.4696 22.3398C40.1768 20.86 40.1768 19.14 39.4696 17.6602C39.1638 17.0204 38.6424 16.4086 37.5994 15.1848C37.1844 14.6977 36.9768 14.4542 36.8026 14.1941C36.403 13.5979 36.1256 12.9283 35.9866 12.2242C35.926 11.917 35.9004 11.5981 35.8496 10.9602C35.7216 9.3574 35.6576 8.556 35.4216 7.88742C34.8754 6.34102 33.659 5.12466 32.1126 4.57846C31.444 4.3423 30.6426 4.27836 29.0398 4.15044C28.402 4.09954 28.083 4.0741 27.7758 4.01344C27.0716 3.87442 26.402 3.59708 25.8058 3.19748C25.5458 3.02316 25.3022 2.81562 24.8152 2.40054C23.5914 1.35766 22.9796 0.836225 22.3398 0.530445C20.86 -0.176815 19.14 -0.176815 17.6602 0.530445C17.0204 0.836205 16.4086 1.35766 15.1848 2.40054ZM27.6618 12.3392C28.2974 12.9748 28.2974 14.0055 27.6618 14.6411L14.6401 27.6628C14.0044 28.2986 12.9738 28.2986 12.3381 27.6628C11.7025 27.0272 11.7025 25.9966 12.3381 25.361L25.3598 12.3392C25.9956 11.7035 27.0262 11.7035 27.6618 12.3392ZM27.596 25.4268C27.596 26.6254 26.6244 27.597 25.4258 27.597C24.227 27.597 23.2554 26.6254 23.2554 25.4268C23.2554 24.2282 24.227 23.2564 25.4258 23.2564C26.6244 23.2564 27.596 24.2282 27.596 25.4268ZM14.5742 16.7456C15.7729 16.7456 16.7446 15.7739 16.7446 14.5753C16.7446 13.3767 15.7729 12.405 14.5742 12.405C13.3756 12.405 12.4039 13.3767 12.4039 14.5753C12.4039 15.7739 13.3756 16.7456 14.5742 16.7456Z" fill="#E8364B"/>
</svg>
