<svg width="18" height="18" viewBox="0 0 18 18" fill="none" xmlns="http://www.w3.org/2000/svg">
<g clip-path="url(#clip0_197_641)">
<path d="M9 0C13.9707 0 18 4.02926 18 9C18 13.9707 13.9707 18 9 18C4.02926 18 0 13.9707 0 9C0 4.02926 4.02926 0 9 0ZM12.1046 12.6685C12.2701 12.1606 13.0457 7.09865 13.1416 6.10122C13.1705 5.79913 13.075 5.59839 12.888 5.50878C12.6618 5.4 12.3269 5.45439 11.9383 5.59448C11.4053 5.78661 4.59196 8.67952 4.1983 8.847C3.825 9.00548 3.47204 9.17844 3.47204 9.42887C3.47204 9.60496 3.57652 9.70396 3.86452 9.80687C4.16426 9.9137 4.91909 10.1426 5.36478 10.2655C5.79404 10.384 6.28278 10.2811 6.5567 10.1109C6.84704 9.93052 10.1978 7.68835 10.4384 7.49191C10.6787 7.29548 10.8704 7.54709 10.674 7.74391C10.4776 7.94035 8.17748 10.1727 7.87422 10.4819C7.506 10.8571 7.76739 11.2461 8.0143 11.4018C8.29644 11.5795 10.3253 12.9404 10.631 13.1588C10.9366 13.3771 11.2465 13.4761 11.5302 13.4761C11.8139 13.4761 11.9633 13.1024 12.1046 12.6685Z" fill="white"/>
</g>
<defs>
<clipPath id="clip0_197_641">
<rect width="18" height="18" fill="white"/>
</clipPath>
</defs>
</svg>
