<svg width="18" height="18" viewBox="0 0 18 18" fill="none" xmlns="http://www.w3.org/2000/svg">
<g clip-path="url(#clip0_197_639)">
<path d="M9.00003 0C4.03752 0 5.80786e-05 4.03748 5.80786e-05 9C5.80786e-05 10.5496 0.400361 12.0733 1.15949 13.4178L0.0145363 17.503C-0.0230288 17.6373 0.0133624 17.7813 0.110406 17.881C0.185144 17.9581 0.286883 18 0.391361 18C0.422665 18 0.454361 17.9961 0.485274 17.9887L4.74891 16.9325C6.05078 17.6314 7.51699 18 9.00003 18C13.9625 18 18 13.9625 18 9C18 4.03748 13.9625 0 9.00003 0ZM13.5274 12.1758C13.3349 12.7088 12.4114 13.1952 11.9677 13.2605C11.5693 13.3188 11.0653 13.3439 10.512 13.1701C10.1767 13.0645 9.74624 12.9244 9.1949 12.6892C6.87721 11.7008 5.36365 9.39639 5.24782 9.24417C5.13239 9.09196 4.30439 8.00726 4.30439 6.88461C4.30439 5.76196 4.90113 5.20983 5.11322 4.9813C5.3253 4.75278 5.57534 4.69565 5.72952 4.69565C5.88369 4.69565 6.03747 4.69761 6.17247 4.70387C6.31452 4.71091 6.50508 4.65026 6.69252 5.09557C6.88504 5.55261 7.34717 6.67526 7.4043 6.78991C7.46221 6.90417 7.50056 7.03761 7.42386 7.18983C7.34717 7.34204 7.30882 7.43713 7.19299 7.57057C7.07717 7.704 6.95038 7.86796 6.8463 7.97048C6.73047 8.08435 6.61034 8.20761 6.74495 8.43613C6.87956 8.66465 7.34325 9.41165 8.03038 10.0166C8.91277 10.7937 9.65742 11.0348 9.88829 11.149C10.1192 11.2633 10.2542 11.2441 10.3888 11.0919C10.5234 10.9393 10.9663 10.4255 11.1201 10.1974C11.2739 9.96926 11.4281 10.0068 11.6402 10.0831C11.8522 10.159 12.9882 10.7108 13.2191 10.825C13.4499 10.9393 13.6041 10.9964 13.662 11.0915C13.7199 11.1862 13.7199 11.6433 13.5274 12.1758Z" fill="white"/>
</g>
<defs>
<clipPath id="clip0_197_639">
<rect width="18" height="18" fill="white"/>
</clipPath>
</defs>
</svg>
