<svg id="_Слой_1" data-name="Слой 1" xmlns="http://www.w3.org/2000/svg" version="1.1" viewBox="0 0 166 50" style="width:166px;height:50px;" width="166" height="50">
  <defs>
    <style>
      .cls-1, .cls-2, .cls-3 {
        stroke-width: 0px;
      }

      .cls-1, .cls-3 {
        fill: #70777c;
      }

      .cls-2 {
        fill: #c21830;
      }

      .cls-2, .cls-3 {
        fill-rule: evenodd;
      }
    </style>
  </defs>
  <g>
    <polygon class="cls-3" points="38.7 22.19 37.13 20.61 19.85 37.89 5.97 24.01 4.39 25.59 18.27 39.47 19.84 41.04 19.85 41.04 38.7 22.19"></polygon>
    <polygon class="cls-3" points="21.42 33.28 38.7 16 37.13 14.42 19.85 31.7 5.95 17.81 4.38 19.39 18.27 33.28 19.85 34.85 21.42 33.28"></polygon>
    <polygon class="cls-3" points="38.7 28.37 37.13 26.8 19.85 44.08 5.88 30.11 4.3 31.69 18.27 45.65 19.83 47.21 19.85 47.23 38.7 28.37"></polygon>
    <polygon class="cls-3" points=".94 28.43 2.51 30.01 19.79 12.73 33.62 26.56 35.2 24.98 21.37 11.15 19.8 9.58 19.79 9.58 .94 28.43"></polygon>
    <polygon class="cls-3" points="18.22 17.34 .94 34.62 2.51 36.19 19.79 18.91 33.63 32.75 35.2 31.17 21.37 17.34 19.79 15.76 18.22 17.34"></polygon>
    <polygon class="cls-3" points=".94 22.24 2.51 23.82 19.79 6.54 33.5 20.25 35.07 18.67 21.37 4.96 19.81 3.41 19.79 3.39 .94 22.24"></polygon>
  </g>
  <g>
    <path class="cls-2" d="M164.95,37.67v-4.23l-6.73-.02c-1.39,0-2.45-.41-3.26-1.26-1.02-1.06-1.28-2.39-1.28-6.24v-1.3c0-2.32,0-4.84,1.28-6.17.81-.85,1.91-1.26,3.26-1.26h6.73v-4.19l-6.73-.03c-2.82-.01-5.24.92-7.07,2.66-2.01,1.91-2.57,3.85-2.57,8.69v.99c0,4.06,0,7.26,2.57,9.68,1.83,1.74,4.29,2.66,7.11,2.66l6.69.02Z"></path>
    <polygon class="cls-2" points="120.61 37.44 120.61 13.17 101.6 13.17 101.6 37.44 106.69 37.44 106.69 17.4 115.52 17.4 115.52 37.44 120.61 37.44"></polygon>
    <polygon class="cls-2" points="96.19 33.16 96.19 13.17 91.97 13.17 84.5 24.99 84.5 13.17 79.89 13.17 79.89 33.16 84.04 33.16 91.51 21.32 91.51 33.16 96.19 33.16"></polygon>
    <path class="cls-2" d="M67.77,33.22h-8.28c1.61-4.09,2.71-7.84,2.71-15.03v-.78h5.57v15.82ZM75.87,37.49v-4.27h-3V13.17h-15.68v1.09c0,9.34-.92,14.15-2.97,18.95h-2.6v4.27h24.26Z"></path>
    <path class="cls-2" d="M139.12,24.87c0,4.94-.22,6.14-1.28,7.26-.81.85-1.94,1.3-3.26,1.3s-2.42-.48-3.3-1.3c-1.39-1.3-1.25-4.19-1.25-7.16s.07-5.28,1.25-6.48c.81-.85,1.98-1.3,3.3-1.3s2.46.44,3.26,1.3c1.03,1.06,1.28,2.39,1.28,6.37M144.22,25.31v-1.7c0-3.92-.77-6.24-2.6-7.98-1.83-1.74-4.25-2.66-7.03-2.66s-5.24.92-7.07,2.66c-2.02,1.91-2.57,3.85-2.57,8.69v1.33c0,2.69-.18,6.71,2.57,9.34,1.83,1.74,4.25,2.66,7.07,2.66s5.2-.89,7.03-2.66c2.78-2.69,2.6-6.2,2.6-9.68Z"></path>
    <path class="cls-1" d="M164.95,9.11V3.28h-.63l-3.18,4.75V3.28h-.67v5.83h.63l3.18-4.75v4.75h.67ZM164.12,1.84h-.5c-.1.34-.34.61-.9.61s-.81-.26-.91-.61h-.5c.14.7.61,1.07,1.41,1.07s1.26-.37,1.4-1.07ZM156.47,9.11V3.28h-.63l-3.18,4.75V3.28h-.67v5.83h.63l3.18-4.75v4.75h.67ZM147.98,9.11V3.28h-.67v2.61h-2.97v-2.61h-.67v5.83h.67v-2.66h2.97v2.66h.67ZM139.06,7.25h-2.34l1.18-3.08,1.16,3.08ZM140.47,9.11l-2.3-5.83h-.56l-2.3,5.83h.71l.5-1.32h2.74l.5,1.32h.71ZM132.09,9.11V3.28h-4.3v5.83h.67V3.84h2.96v5.27h.67ZM123.79,9.11V3.28h-.67l-1.99,4.13-2.04-4.13h-.67v5.83h.67v-4.43l1.74,3.51h.57l1.71-3.51v4.43h.67ZM113.99,6.19c0,.78.05,1.53-.44,1.99-.29.27-.67.42-1.08.42s-.79-.15-1.08-.42c-.49-.46-.44-1.21-.44-1.99,0-.88-.04-1.55.44-1.99.29-.27.68-.42,1.08-.42s.79.15,1.08.42c.48.44.44,1.18.44,1.99ZM114.66,6.19c0-.83.06-1.75-.59-2.36-.42-.39-.99-.61-1.6-.61s-1.18.21-1.6.61c-.65.61-.59,1.53-.59,2.36,0,1.16.02,1.82.59,2.36.42.39.98.61,1.6.61s1.18-.21,1.6-.61c.57-.53.59-1.19.59-2.36ZM107.3,9.11l-2.25-3.58,1.97-2.25h-.82l-2.92,3.35v-3.35h-.67v5.83h.67v-1.63l1.32-1.47,1.91,3.1h.79ZM92.73,7.3h-2.34l1.18-3.08,1.16,3.08ZM94.14,9.16l-2.3-5.83h-.56l-2.3,5.83h.71l.5-1.32h2.74l.5,1.32h.71ZM85.76,9.16V3.33h-4.3v5.83h.67V3.89h2.96v5.27h.67ZM77.45,9.16V3.33h-4.3v5.83h.67V3.89h2.96v5.27h.67ZM69.98,3.33h-.71l-1.52,3.44-1.69-3.44h-.71l2.07,4.14-.26.55c-.18.4-.4.58-.83.58h-.4v.56h.55c.62,0,.99-.38,1.23-.91l2.27-4.92ZM59.1,6.2v-2.32h1.6c.84,0,1.33.43,1.33,1.15s-.49,1.16-1.33,1.16h-1.6ZM58.43,3.33v5.83h.67v-2.4h1.66c1.16,0,1.93-.69,1.93-1.72s-.77-1.71-1.93-1.71h-2.33ZM55.38,3.89v-.56h-3.76v5.83h.67V3.89h3.1Z"></path>
    <path class="cls-1" d="M164.47,44.26c0,.69.05,1.35-.39,1.76-.26.24-.59.37-.96.37s-.7-.13-.96-.37c-.44-.41-.39-1.07-.39-1.76,0-.78-.03-1.37.39-1.76.26-.24.6-.37.96-.37s.7.13.96.37c.42.39.39,1.04.39,1.76M165.06,44.26c0-.73.05-1.55-.52-2.09-.37-.35-.87-.54-1.42-.54s-1.04.19-1.42.54c-.58.54-.52,1.35-.52,2.09,0,1.03.02,1.62.52,2.09.37.35.86.54,1.42.54s1.04-.19,1.42-.54c.51-.47.52-1.06.52-2.09ZM155.38,46.35v-1.89h1.51c.69,0,1.11.36,1.11.94s-.43.95-1.11.95h-1.51ZM155.38,43.96v-1.79h1.45c.68,0,1.09.33,1.09.89s-.41.9-1.09.9h-1.45ZM157.69,44.19c.21-.09.3-.13.41-.24.27-.23.4-.54.4-.91,0-.81-.65-1.35-1.63-1.35h-2.09v5.16h2.16c1.03,0,1.65-.54,1.65-1.41,0-.39-.14-.71-.41-.96-.13-.12-.23-.18-.49-.28ZM152,42.17v-.49h-3.8v.49h1.6v4.66h.59v-4.66h1.6ZM145.73,46.25l-.4-.37c-.34.31-.65.51-1.14.51-.39,0-.72-.12-.97-.36-.31-.29-.39-.62-.39-1.57v-.2c0-.84.02-1.41.39-1.77.25-.23.59-.36.97-.36.5,0,.8.2,1.14.51l.4-.37c-.49-.41-.87-.63-1.55-.63-.55,0-1.05.19-1.43.54-.54.5-.52,1.1-.52,2.09,0,.83-.03,1.56.52,2.09.37.35.87.54,1.43.54.67,0,1.06-.23,1.54-.63ZM138.9,46.84v-5.16h-.59v2.31h-2.63v-2.31h-.59v5.16h.59v-2.35h2.63v2.35h.59ZM130.95,44.22h-1.42c-.74,0-1.18-.38-1.18-1.03s.44-1.02,1.18-1.02h1.42v2.05ZM131.55,46.84v-5.16h-2.06c-1.03,0-1.71.61-1.71,1.51,0,.74.45,1.27,1.18,1.44l-1.28,2.2h.7l1.2-2.12h1.37v2.12h.6ZM124.12,44.26c0,.69.05,1.35-.39,1.76-.26.24-.59.37-.96.37s-.7-.13-.96-.37c-.44-.41-.39-1.07-.39-1.76,0-.78-.03-1.37.39-1.76.26-.24.6-.37.96-.37s.7.13.96.37c.42.39.39,1.04.39,1.76ZM124.71,44.26c0-.73.05-1.55-.52-2.09-.37-.35-.87-.54-1.42-.54s-1.04.19-1.42.54c-.58.54-.52,1.35-.52,2.09,0,1.03.02,1.62.52,2.09.37.35.86.54,1.42.54s1.04-.19,1.42-.54c.51-.47.52-1.06.52-2.09ZM118.26,42.17v-.49h-3.8v.49h1.6v4.66h.59v-4.66h1.6ZM111.99,46.25l-.4-.37c-.34.31-.65.51-1.14.51-.39,0-.72-.12-.97-.36-.31-.29-.39-.62-.39-1.57v-.2c0-.84.02-1.41.39-1.77.25-.23.59-.36.97-.36.5,0,.8.2,1.14.51l.4-.37c-.49-.41-.87-.63-1.55-.63-.55,0-1.05.19-1.42.54-.54.5-.52,1.1-.52,2.09,0,.83-.03,1.56.52,2.09.37.35.87.54,1.43.54.67,0,1.06-.23,1.54-.63ZM104.78,44.26c0,.69.05,1.35-.39,1.76-.26.24-.59.37-.96.37s-.7-.13-.96-.37c-.44-.41-.39-1.07-.39-1.76,0-.78-.03-1.37.39-1.76.26-.24.6-.37.96-.37s.7.13.96.37c.42.39.39,1.04.39,1.76ZM105.37,44.26c0-.73.05-1.55-.52-2.09-.37-.35-.87-.54-1.42-.54s-1.04.19-1.42.54c-.58.54-.52,1.35-.52,2.09,0,1.03.02,1.62.52,2.09.37.35.86.54,1.42.54s1.04-.19,1.42-.54c.51-.47.52-1.06.52-2.09ZM98.16,46.84v-5.16h-3.81v5.16h.59v-4.66h2.62v4.66h.59ZM87.75,46.84v-5.16h-.56l-2.82,4.2v-4.2h-.59v5.16h.56l2.82-4.21v4.21h.59ZM76.56,44.26c0,.69.05,1.35-.39,1.76-.26.24-.59.37-.96.37s-.7-.13-.96-.37c-.44-.41-.39-1.07-.39-1.76,0-.78-.03-1.37.39-1.76.26-.24.6-.37.96-.37s.7.13.96.37c.42.39.39,1.04.39,1.76ZM77.16,44.26c0-.73.05-1.55-.52-2.09-.37-.35-.87-.54-1.42-.54s-1.04.19-1.42.54c-.58.54-.52,1.35-.52,2.09,0,1.03.02,1.62.52,2.09.37.35.86.54,1.42.54s1.04-.19,1.42-.54c.51-.47.52-1.06.52-2.09ZM69.94,46.84v-5.16h-3.01l-.09,2.64c-.05,1.72-.48,2.02-1.16,2.02h-.21v.49h.35c1.04,0,1.54-.63,1.6-2.35l.09-2.31h1.84v4.66h.59ZM62.96,46.84v-.49h-2.85v-1.86h2.43v-.49h-2.43v-1.82h2.85v-.49h-3.44v5.16h3.44ZM55.21,46.35h-2.41c.45-1.07.63-1.77.63-3.82v-.35h1.78v4.17ZM56.46,48.16v-1.81h-.66v-4.66h-2.96v.4c0,2.26-.16,3.14-.67,4.27h-.56v1.81h.58v-1.32h3.68v1.32h.58Z"></path>
  </g>
</svg>