<svg width="206" height="32" viewBox="0 0 206 32" fill="none" xmlns="http://www.w3.org/2000/svg">
<g clip-path="url(#clip0_37_1386)">
<path d="M32.1851 0.000999451H0V6.39807H32.1851V0.000999451Z" fill="#FBB92F"/>
<path d="M32.1851 12.7942H0V19.1913H32.1851V12.7942Z" fill="#EE7918"/>
<path d="M32.1851 25.5884H0V31.9856H32.1851V25.5884Z" fill="#E42213"/>
<path d="M157.256 6.40314L162.34 19.1848H152.158L157.256 6.40314ZM152.324 0.00362396L139.968 31.9891H147.347L149.764 25.5777L164.749 25.584L167.165 31.9891H174.504L161.431 0.00362396H152.324Z" fill="black"/>
<path d="M45.0557 0.00362396V31.9891H71.4619V25.5961L51.5107 25.585V19.1918H71.4619V12.7823H51.5107V6.40538L71.4619 6.38395V0.00362396H45.0557Z" fill="black"/>
<path d="M178.965 31.9637H191.445H196.398C201.596 31.9637 205.999 28.452 205.999 22.4698C205.999 20.0042 205.047 17.585 202.077 15.9837C205.515 13.9952 205.999 11.9632 205.999 9.49766C205.999 4.29389 201.596 0.00362396 196.398 0.00362396H191.445H178.965V6.50849H196.098C197.847 6.50849 199.264 7.91719 199.264 9.65494C199.264 11.3927 197.847 12.8015 196.098 12.8015H192.677H182.175V19.1658H192.677H196.098C197.847 19.1658 199.264 20.5746 199.264 22.3123C199.264 24.05 197.847 25.4588 196.098 25.4588H178.965V31.9637H178.965Z" fill="black"/>
<path d="M131.067 0.00362396H126.114H113.313V31.9891H119.753V19.1659H127.347H131.067C136.392 19.1659 140.708 14.8763 140.708 9.58478C140.708 4.29325 136.392 0.00362396 131.067 0.00362396ZM130.767 12.8015H119.744V6.50849H130.767C132.516 6.50849 133.933 7.91719 133.933 9.65494C133.933 11.3927 132.516 12.8015 130.767 12.8015Z" fill="black"/>
<path d="M102.485 15.9837C105.923 13.9952 106.407 11.9632 106.407 9.49766C106.407 4.29389 102.003 0.00362396 96.8054 0.00362396L96.8056 0.00373059C96.8041 0.00373059 96.8029 0.00362396 96.8015 0.00362396H79.2079V31.9637H97.1233C102.321 31.9637 106.725 28.452 106.725 22.4698C106.725 20.0042 105.455 17.5851 102.485 15.9837ZM85.6394 6.50849H96.5016C98.2502 6.50849 99.6676 7.91719 99.6676 9.65494C99.6676 11.3927 98.2502 12.8015 96.5016 12.8015H93.2417H85.6394V6.50849ZM96.8235 25.4588H85.6394V19.1658H96.8234C98.5721 19.1658 99.9895 20.5746 99.9895 22.3123C99.9895 24.05 98.5721 25.4588 96.8235 25.4588Z" fill="black"/>
</g>
<defs>
<clipPath id="clip0_37_1386">
<rect width="206" height="32" fill="white"/>
</clipPath>
</defs>
</svg>
