<svg width="195" height="65" viewBox="0 0 195 65" fill="none" xmlns="http://www.w3.org/2000/svg">
<g clip-path="url(#clip0_2004_751)">
<path d="M117.319 48.2692H111.207V43.9897C111.207 42.7377 111.138 41.9638 111.001 41.6679C110.865 41.372 110.591 41.1899 110.135 41.1899C109.633 41.1899 109.314 41.372 109.177 41.7589C109.04 42.1459 108.972 42.9426 108.972 44.1946V55.6217C108.972 56.8054 109.04 57.6021 109.177 57.9663C109.314 58.3305 109.633 58.5126 110.089 58.5126C110.545 58.5126 110.842 58.3305 110.979 57.9663C111.115 57.6021 111.207 56.7371 111.207 55.3941V52.2983H117.319V53.2543C117.319 55.8038 117.136 57.6021 116.794 58.6492C116.452 59.7191 115.677 60.6524 114.514 61.4491C113.328 62.2458 111.891 62.6555 110.158 62.6555C108.379 62.6555 106.896 62.3141 105.733 61.6312C104.638 61.0393 103.794 60.015 103.429 58.8313C103.042 57.6249 102.859 55.8266 102.859 53.4137V46.2205C102.836 44.9002 102.905 43.5572 103.042 42.237C103.315 40.2566 104.615 38.5493 106.463 37.7299C107.58 37.2291 108.789 36.9787 109.998 37.0014C111.8 37.0014 113.282 37.3656 114.468 38.0941C115.654 38.8225 116.407 39.733 116.772 40.8256C117.137 41.9183 117.319 43.6027 117.319 45.9018V48.2692Z" fill="#282929"/>
<path d="M18.8614 62.1314V37.5472H10.879L9.4877 49.0198L8.6439 42.7599C8.393 40.7568 8.1421 39.004 7.914 37.5244H0V62.1086H5.3597V45.924L7.6175 62.1314H11.4035L13.5246 45.537V62.1314H18.8614Z" fill="#282929"/>
<path fill-rule="evenodd" clip-rule="evenodd" d="M26.8442 52.4118H34.4389V49.7486C34.4389 47.7909 34.2109 46.2886 33.7775 45.2187C33.3442 44.1261 32.5459 43.2155 31.5196 42.6237C30.4477 41.9635 29.1021 41.6449 27.46 41.6449C26.2284 41.6221 24.9968 41.8953 23.8793 42.4643C22.8758 42.9651 22.1003 43.7846 21.6442 44.8089C21.188 45.8333 20.96 47.1991 20.96 48.9746V54.8475C20.96 56.3499 21.0512 57.488 21.2565 58.2847C21.4617 59.0815 21.8266 59.8099 22.3512 60.4472C22.9442 61.1301 23.7196 61.6765 24.5863 61.9724C25.6354 62.3594 26.753 62.5415 27.8705 62.5187C29.1477 62.5187 30.2196 62.3366 31.0635 61.9724C31.9073 61.5854 32.6372 60.9936 33.1617 60.2424C33.6635 59.605 34.0056 58.8766 34.2109 58.1026C34.3933 57.1466 34.4617 56.1905 34.4389 55.2345V53.7549H28.874V56.4182C28.874 57.4197 28.8056 58.1026 28.6459 58.4441C28.4863 58.7855 28.1442 58.9904 27.7565 58.9676C27.46 58.9904 27.1635 58.8538 27.0266 58.5807C26.8898 58.3075 26.8442 57.7384 26.8442 56.8279V52.4118ZM28.5547 47.6543V49.134H26.8442V47.6543C26.8442 46.5162 26.8898 45.8333 26.981 45.5601C27.0723 45.287 27.3231 45.1732 27.7337 45.1732C28.0301 45.1504 28.3038 45.3325 28.3951 45.6284C28.5091 45.9471 28.5547 46.6072 28.5547 47.6543Z" fill="#282929"/>
<path d="M48.0084 41.9863V46.1976H44.6558V62.1318H38.7944V46.1976H35.4189V41.9863H48.0084Z" fill="#282929"/>
<path fill-rule="evenodd" clip-rule="evenodd" d="M48.921 49.7941H54.417V47.6771C54.417 46.5617 54.463 45.8561 54.554 45.6057C54.646 45.3553 54.896 45.1959 55.284 45.1959C55.603 45.1732 55.9 45.378 56.014 45.674C56.174 45.9926 56.242 46.6755 56.242 47.7226C56.242 48.5649 56.174 49.1112 56.037 49.3844C55.9 49.6575 54.874 50.1811 52.935 50.9778C51.1332 51.7062 49.9929 52.3436 49.5596 52.8899C49.1262 53.4362 48.8753 54.4605 48.8753 55.9629V57.6246C48.8753 59.6505 49.3087 60.9708 50.1525 61.5854C50.9736 62.1773 51.9771 62.4732 52.981 62.4732C53.688 62.4959 54.395 62.3138 54.988 61.9496C55.603 61.5399 56.082 60.9936 56.379 60.3334V62.1317H62.081V52.0249C62.081 48.7015 61.989 46.4934 61.784 45.4463C61.579 44.3765 60.963 43.4659 59.96 42.7375C58.956 42.0091 57.451 41.6221 55.467 41.6221C53.802 41.6221 52.456 41.9408 51.4297 42.6009C50.4034 43.261 49.6964 43.9894 49.3543 44.8545C49.0122 45.7195 48.8525 46.9032 48.8525 48.4511L48.921 49.7941ZM54.646 54.3467C54.805 53.8687 55.353 53.2541 56.288 52.5484V56.6913C56.288 57.7157 56.242 58.3303 56.105 58.5807C55.968 58.8311 55.763 58.9221 55.398 58.9221C55.056 58.9449 54.737 58.7628 54.6 58.4669C54.486 58.1709 54.417 57.488 54.417 56.4409C54.417 55.7353 54.486 55.0296 54.646 54.3467Z" fill="#282929"/>
<path d="M73.0962 62.132V46.1978H71.0212V56.373C71.0212 58.2168 70.8162 59.537 70.4052 60.3565C70.0182 61.1305 69.3112 61.6768 68.4672 61.8589C67.6002 62.041 66.1632 62.1548 64.1562 62.132H63.1982V58.8314C63.9512 58.8086 64.4532 58.7176 64.7492 58.5355C65.0462 58.3534 65.1822 57.6705 65.1822 56.5323V41.9639H78.9352V62.1093L73.0962 62.132Z" fill="#282929"/>
<path d="M89.814 46.1976V62.1318H95.63V41.9863H81.877V56.5548C81.877 57.693 81.741 58.3531 81.467 58.558C81.193 58.7628 80.669 58.8311 79.916 58.8539V62.1545H80.874C82.858 62.1545 84.295 62.0635 85.184 61.8814C86.028 61.722 86.735 61.153 87.123 60.379C87.534 59.5823 87.739 58.262 87.739 56.3955V46.1976H89.814Z" fill="#282929"/>
<path fill-rule="evenodd" clip-rule="evenodd" d="M125.028 52.4118H132.623V49.7486C132.623 47.7909 132.395 46.2886 131.962 45.2187C131.528 44.1261 130.73 43.2155 129.704 42.6237C128.632 41.9635 127.286 41.6449 125.644 41.6449C124.412 41.6221 123.181 41.8953 122.063 42.4643C121.06 42.9651 120.284 43.7846 119.828 44.8089C119.372 45.8333 119.144 47.1991 119.144 48.9746V54.8475C119.144 56.3499 119.235 57.488 119.441 58.2847C119.646 59.0815 120.011 59.8099 120.535 60.4472C121.128 61.1301 121.904 61.6765 122.77 61.9724C123.819 62.3594 124.937 62.5415 126.055 62.5187C127.332 62.5187 128.381 62.3366 129.225 61.9724C130.069 61.5854 130.798 60.9936 131.323 60.2424C131.825 59.605 132.167 58.8766 132.372 58.1026C132.555 57.1466 132.623 56.1905 132.6 55.2345V53.7549H127.035V56.4182C127.035 57.4197 126.967 58.1026 126.807 58.4441C126.648 58.7855 126.374 58.9676 125.918 58.9676C125.621 58.9904 125.325 58.8538 125.188 58.5807C125.074 58.3075 125.005 57.7384 125.005 56.8279V52.4118H125.028ZM126.762 47.6543V49.134H125.051V47.6543C125.051 46.5162 125.097 45.8333 125.188 45.5601C125.279 45.287 125.53 45.1732 125.941 45.1732C126.237 45.1504 126.511 45.3325 126.579 45.6284C126.693 45.9471 126.762 46.6072 126.762 47.6543Z" fill="#282929"/>
<path d="M148.086 52.367L142.202 48.9525V56.4871C142.202 57.557 142.156 58.2399 142.065 58.513C141.974 58.7862 141.746 58.9228 141.381 58.9228C141.062 58.9683 140.742 58.7634 140.628 58.4675C140.514 58.1716 140.446 57.3976 140.446 56.1912V47.9282L134.562 44.5137V65.0005H140.446V60.3796C140.902 61.017 141.472 61.5633 142.156 61.9503C142.772 62.2917 143.479 62.4966 144.186 62.4738C145.007 62.4966 145.828 62.269 146.512 61.7909C147.151 61.3357 147.607 60.6755 147.79 59.9244C147.995 59.1504 148.109 57.8529 148.109 56.0091L148.086 52.367Z" fill="#282929"/>
<path d="M150.024 53.5049V62.1321H156.752C159.626 62.1321 161.474 61.7679 162.34 61.0167C162.431 60.9484 162.5 60.8574 162.591 60.7663L157.231 57.6705C156.798 57.8526 156.319 57.9209 155.863 57.8982V56.8738L150.024 53.5049Z" fill="#282929"/>
<path d="M148.086 52.3667V47.5409C148.086 45.9475 147.995 44.8093 147.835 44.1492C147.63 43.4435 147.196 42.8061 146.581 42.3964C145.919 41.8728 145.075 41.5996 144.232 41.6224C143.502 41.6224 142.795 41.8045 142.156 42.146C141.472 42.5557 140.879 43.102 140.423 43.7621L140.514 41.9866H134.539V44.5134L140.423 47.9279V47.8368C140.423 46.6759 140.468 45.9475 140.582 45.6288C140.696 45.3329 141.016 45.128 141.335 45.1735C141.723 45.1735 141.974 45.3101 142.065 45.5605C142.156 45.8109 142.202 46.5848 142.202 47.814V48.9522L148.086 52.3667Z" fill="#C22827"/>
<path fill-rule="evenodd" clip-rule="evenodd" d="M162.568 60.7888C163.275 59.992 163.617 58.6718 163.617 56.828V55.6443C163.663 54.5972 163.298 53.5728 162.591 52.7761C161.907 52.0022 160.972 51.5241 159.809 51.3193C162.067 51.0006 163.207 49.7031 163.207 47.4268C163.207 45.4464 162.751 44.0351 161.861 43.2155C160.972 42.3961 159.33 41.9863 156.958 41.9863H150.024V53.5045L155.84 56.8735V53.2314C156.684 53.2314 157.209 53.3452 157.437 53.5728C157.665 53.8005 157.779 54.324 157.779 55.189V55.8719C157.779 56.7369 157.665 57.306 157.391 57.5336C157.345 57.5791 157.277 57.6247 157.209 57.6702L162.568 60.7888ZM157.482 49.1112C157.3 49.3389 156.752 49.4755 155.863 49.4755V46.1976C156.707 46.1976 157.231 46.3114 157.459 46.539C157.688 46.7666 157.802 47.1536 157.802 47.7455C157.779 48.4283 157.688 48.8836 157.482 49.1112Z" fill="#C22827"/>
<path d="M179.879 62.1318H174.77V51.251L170.688 62.1318H165.328V41.9863H170.437V52.7761L174.451 41.9863H179.879V62.1318Z" fill="#C22827"/>
<path d="M189.435 49.5895H194.977C194.977 47.7002 194.795 46.2433 194.453 45.1962C194.088 44.1719 193.358 43.3068 192.286 42.624C191.214 41.9411 189.891 41.5996 188.363 41.5996C186.835 41.5996 185.512 41.9411 184.44 42.624C183.368 43.3068 182.661 44.0808 182.342 44.9458C182.023 45.8108 181.84 47.1083 181.84 48.8156V54.5519C181.84 56.5095 182.046 58.0347 182.433 59.1045C182.821 60.1516 183.551 61.0166 184.486 61.5857C185.444 62.1776 186.767 62.4735 188.432 62.4735C189.732 62.4735 190.826 62.2686 191.693 61.8361C192.56 61.4036 193.312 60.7435 193.837 59.924C194.339 59.1728 194.681 58.3306 194.818 57.4428C194.932 56.2364 195 55.0299 195 53.8235H189.777V56.2364C189.777 57.2835 189.709 57.9891 189.572 58.3533C189.458 58.6948 189.139 58.9452 188.774 58.8997C188.432 58.8997 188.135 58.6948 187.998 58.3761C187.793 57.8526 187.702 57.3062 187.747 56.7599V47.2677C187.747 46.3799 187.793 45.8108 187.93 45.5604C188.044 45.3101 188.318 45.1507 188.614 45.1735C188.91 45.1507 189.207 45.3328 189.321 45.6287C189.435 45.9019 189.503 46.4482 189.503 47.2677L189.435 49.5895Z" fill="#C22827"/>
<path d="M85.4506 23.853L83.4119 27.3655L80.709 22.6592L81.3962 21.4654C81.694 20.9374 82.3811 20.7537 82.908 21.0522L85.0154 22.2689C85.5651 22.6133 85.7484 23.302 85.4506 23.853Z" fill="#C22827"/>
<path d="M90.6042 26.8144L86.9621 33.1277C86.6643 32.8751 86.4352 32.5767 86.2291 32.2553L84.1904 28.7198L86.5956 24.5186C86.9163 23.9676 87.6035 23.784 88.1303 24.1054L90.1461 25.2762C90.7187 25.5747 90.902 26.2863 90.6042 26.8144Z" fill="#C22827"/>
<path d="M95.781 29.8217L93.3759 33.9999H89.2527C88.8633 33.9999 88.4739 33.9311 88.1074 33.7933L91.7495 27.48C92.0702 26.952 92.7574 26.7683 93.3072 27.0668L95.3687 28.2606C95.8956 28.582 96.1017 29.2707 95.781 29.8217Z" fill="#C22827"/>
<path d="M101.233 32.9438L100.614 33.9999H94.9336L96.9493 30.4874C97.27 29.9364 97.9572 29.7528 98.4841 30.0742L100.82 31.4287C101.347 31.7501 101.531 32.4158 101.233 32.9438Z" fill="#C22827"/>
<path d="M114.312 12.948L100.431 4.9129C98.7817 3.94868 96.6972 4.52262 95.7351 6.1526C95.7351 6.17556 95.7122 6.17556 95.7122 6.19851L92.6428 11.4558C92.345 11.9838 91.6578 12.1675 91.131 11.869L89.0007 10.6523C88.4738 10.3309 88.2677 9.64213 88.5884 9.11411L93.7652 0H104.806C106.066 0 107.211 0.665766 107.83 1.74477L114.312 12.948Z" fill="#C22827"/>
<path d="M115.618 18.7562L115.503 18.9399C115.183 19.4909 114.496 19.6745 113.946 19.3761L106.73 15.1978C106.524 15.0601 106.226 15.129 106.112 15.3585L105.906 15.7259C105.768 15.9325 105.837 16.2309 106.066 16.3457L113.258 20.524C113.808 20.8454 113.991 21.5341 113.694 22.0851L112.64 23.8987C112.319 24.4497 111.632 24.6334 111.082 24.3349L103.89 20.1796C103.684 20.0419 103.386 20.1107 103.271 20.3403L103.065 20.7076C102.928 20.9372 103.019 21.2127 103.226 21.3275L110.418 25.5057C110.968 25.8271 111.151 26.5159 110.853 27.0668L109.8 28.8805C109.479 29.4315 108.792 29.6151 108.242 29.3167L101.004 25.1614C100.798 25.0236 100.5 25.0925 100.385 25.3221L100.179 25.6894C100.042 25.896 100.11 26.1945 100.339 26.3092L107.532 30.4645C108.082 30.786 108.265 31.4747 107.967 32.0257L107.853 32.2093C107.234 33.2883 106.066 33.9541 104.829 33.9541H102.195L102.424 33.5868C103.088 32.4159 102.699 30.9237 101.531 30.235L83.5949 19.9041C82.4266 19.2154 80.9148 19.6286 80.2505 20.7995L79.9299 21.3275L78.4639 18.7562C77.8454 17.6772 77.8454 16.3228 78.4639 15.2438L86.2291 1.74477C86.8476 0.665766 88.0158 0 89.2527 0H92.2305L87.4202 8.42539C86.7559 9.61917 87.1682 11.1114 88.3365 11.8001L90.4438 13.0169C90.8103 13.2235 91.2456 13.3383 91.6579 13.3383C92.5283 13.3383 93.33 12.8791 93.7882 12.1215L96.8805 6.88724C97.4532 5.87711 98.7359 5.50979 99.7438 6.08373H99.7667L114.404 14.555C115.847 15.4045 116.443 17.264 115.641 18.7103C115.641 18.7333 115.618 18.7562 115.618 18.7562Z" fill="#282929"/>
</g>
<defs>
<clipPath id="clip0_2004_751">
<rect width="195" height="65.0005" fill="white"/>
</clipPath>
</defs>
</svg>
