<svg width="196" height="41" viewBox="0 0 196 41" fill="none" xmlns="http://www.w3.org/2000/svg">
<g clip-path="url(#clip0_3013_6174)">
<path d="M39.2304 1.06836L24.8197 14.3919L10.4014 1.06836L0 40.7699H4.65846L12.9062 9.28219L24.8197 20.2699L36.7179 9.27451L44.9885 40.7699L49.6394 40.7775L39.2304 1.06836Z" fill="#004E9E"/>
<path d="M24.8199 22.6139L14.0749 12.871L7.07959 40.7704H11.7151L16.6561 21.0311L24.8199 28.4612L32.9684 21.0618L37.9094 40.7704H42.5526L35.5496 12.8633L24.8199 22.6139Z" fill="#004E9E"/>
<path d="M33.0372 29.2979L31.9909 24.4341L20.4822 34.5151L21.8492 28.1607L17.626 24.3496L14.1284 40.7696H19.1381L24.3541 36.459L29.1653 40.7772L35.4198 40.7696L27.6226 33.7621L33.0372 29.2979Z" fill="#004E9E"/>
</g>
<g clip-path="url(#clip1_3013_6174)">
<path d="M57.0096 2.43555H59.5603L61.1641 7.85253L62.7678 2.43555H65.3185L66.6473 11.3179H64.2035L63.5239 6.16981L61.9889 11.3179H60.3469L58.8119 6.16981L58.1323 11.3179H55.6885L57.0096 2.43555Z" fill="#004E9E"/>
<path d="M70.4807 2.43555H73.5813L76.8193 11.3179H74.0853L73.5813 9.78113H70.4807L69.9767 11.3179H67.2427L70.4807 2.43555ZM70.9848 7.82948H73.0696L72.031 4.55624L70.9848 7.82948Z" fill="#004E9E"/>
<path d="M77.7129 2.43555H83.1809V4.56392H80.2636V11.3102H77.7129V2.43555Z" fill="#004E9E"/>
<path d="M84.189 2.43555H86.7397V5.63195H89.8403V2.43555H92.391V11.3179H89.8403V7.76032H86.7397V11.3102H84.189V2.43555Z" fill="#004E9E"/>
<path d="M96.5381 2.43555V7.76032L100.066 2.43555H102.564V11.3179H100.105V5.9854L96.5763 11.3102H94.0791V2.43555H96.5381Z" fill="#004E9E"/>
<path d="M105.557 4.56392H103.556V2.43555H110.116V4.56392H108.115V11.3102H105.565V4.56392H105.557Z" fill="#004E9E"/>
<path d="M110.65 6.87635C110.65 4.5021 112.216 2.18164 115.546 2.18164C118.875 2.18164 120.441 4.5021 120.441 6.87635C120.441 9.2506 118.883 11.5711 115.546 11.5711C112.216 11.5711 110.65 9.2506 110.65 6.87635ZM117.806 6.87635C117.806 5.1629 116.729 4.31001 115.546 4.31001C114.362 4.31001 113.277 5.1629 113.277 6.87635C113.277 8.58981 114.354 9.4427 115.546 9.4427C116.729 9.43501 117.806 8.58981 117.806 6.87635Z" fill="#004E9E"/>
<path d="M121.693 2.43555H127.161V4.56392H124.244V11.3102H121.693V2.43555Z" fill="#004E9E"/>
<path d="M127.75 6.87635C127.75 4.5021 129.307 2.18164 132.645 2.18164C135.974 2.18164 137.54 4.5021 137.54 6.87635C137.54 9.2506 135.982 11.5711 132.645 11.5711C129.307 11.5711 127.75 9.2506 127.75 6.87635ZM134.905 6.87635C134.905 5.1629 133.828 4.31001 132.637 4.31001C131.453 4.31001 130.369 5.1629 130.369 6.87635C130.369 8.58981 131.453 9.4427 132.637 9.4427C133.828 9.43501 134.905 8.58981 134.905 6.87635Z" fill="#004E9E"/>
<path d="M138.792 2.43555H142.634C145.223 2.43555 145.956 4.18742 145.956 5.40144C145.956 6.63083 145.215 8.3827 142.634 8.3827H141.343V11.3102H138.792V2.43555ZM141.343 6.43105H142.069C143.199 6.43105 143.321 5.78562 143.321 5.40144C143.321 4.95579 143.168 4.3872 142.069 4.3872H141.343V6.43105Z" fill="#004E9E"/>
<path d="M153.944 10.9103C153.127 11.4558 152.264 11.5711 151.485 11.5711C148.774 11.5711 146.826 9.71931 146.826 6.87635C146.826 3.91046 148.972 2.18164 151.446 2.18164C152.256 2.18164 153.18 2.38141 153.944 2.88854V5.46256C153.478 4.93239 152.76 4.39453 151.782 4.39453C150.377 4.39453 149.453 5.48561 149.453 6.94551C149.453 8.29015 150.324 9.34281 151.782 9.34281C152.729 9.34281 153.478 8.85105 153.944 8.38235V10.9103Z" fill="#004E9E"/>
<path d="M155.41 2.43555H157.961V6.16212L160.71 2.43555H163.704L160.244 6.7384L163.795 11.3179H160.603L157.961 7.49908V11.3179H155.41V2.43555Z" fill="#004E9E"/>
<path d="M167.148 2.43555V7.76032L170.676 2.43555H173.173V11.3179H170.714V5.9854L167.186 11.3102H164.689V2.43555H167.148Z" fill="#004E9E"/>
<path d="M177.328 2.43572V7.7605L180.856 2.43572H183.353V11.318H180.894V5.98557L177.366 11.3103H174.869V2.43572H177.328ZM181.841 0.530172C181.345 1.56747 180.184 1.95165 179.107 1.95165C178.023 1.95165 176.87 1.56747 176.373 0.530172L177.832 0C178.069 0.607009 178.641 0.745315 179.107 0.745315C179.573 0.745315 180.146 0.607009 180.383 0L181.841 0.530172Z" fill="#004E9E"/>
<path d="M57.0096 17.1504H59.5603L61.1641 22.5674L62.7678 17.1504H65.3185L66.6473 26.0327H64.2035L63.5239 20.8847L61.9889 26.0327H60.3469L58.8119 20.8847L58.1323 26.0327H55.6885L57.0096 17.1504Z" fill="#004E9E"/>
<path d="M67.7393 17.1504H73.2073V19.2788H70.29V20.5235H72.9323V22.4752H70.29V23.8967H73.2073V26.025H67.7393V17.1504Z" fill="#004E9E"/>
<path d="M76.0482 19.2788H74.0474V17.1504H80.6074V19.2788H78.6065V26.025H76.0558V19.2788H76.0482Z" fill="#004E9E"/>
<path d="M83.3493 17.1504H86.4498L89.6879 26.0327H86.9539L86.4498 24.496H83.3493L82.8453 26.0327H80.1113L83.3493 17.1504ZM83.861 22.5443H85.9458L84.9072 19.2711L83.861 22.5443Z" fill="#004E9E"/>
<path d="M98.9207 17.1504V26.0327H96.37V19.2865H94.5448V22.7902C94.5448 24.0734 94.415 26.1557 91.2381 26.1557C90.8638 26.1557 90.5737 26.1403 90.1689 26.0404V23.8967C90.3675 23.9504 90.5431 23.9889 90.7264 23.9889C91.849 23.9889 91.9865 23.305 91.9865 22.0449V17.1504H98.9207Z" fill="#004E9E"/>
<path d="M108.604 17.1504V26.0327H106.054V19.2865H104.228V22.7902C104.228 24.0734 104.099 26.1557 100.922 26.1557C100.548 26.1557 100.257 26.1403 99.8525 26.0404V23.8967C100.051 23.9504 100.227 23.9889 100.41 23.9889C101.533 23.9889 101.67 23.305 101.67 22.0449V17.1504H108.604Z" fill="#004E9E"/>
<path d="M112.545 17.1504L114.324 20.877L115.783 17.1504H118.555L114.454 26.0327H111.72L112.957 23.5816L109.536 17.1504H112.545Z" fill="#004E9E"/>
<path d="M119.441 17.1504H123.282C125.871 17.1504 126.604 18.9023 126.604 20.1163C126.604 21.3457 125.863 23.0976 123.282 23.0976H121.992V26.025H119.441V17.1504ZM121.992 21.1459H122.717C123.847 21.1459 123.97 20.5005 123.97 20.1163C123.97 19.6706 123.817 19.1021 122.717 19.1021H121.992V21.1459Z" fill="#004E9E"/>
<path d="M127.711 17.1504H133.179V19.2788H130.262V26.025H127.711V17.1504Z" fill="#004E9E"/>
<path d="M136.654 17.1504V22.4752L140.183 17.1504H142.68V26.0327H140.221V20.7079L136.693 26.0327H134.195V17.1504H136.654Z" fill="#004E9E"/>
<path d="M148.842 22.5674C147.903 22.698 147.712 22.698 147.139 22.698C144.054 22.698 143.924 21.1997 143.924 19.7321V17.1581H146.475V19.3787C146.475 20.0625 146.46 20.7079 147.88 20.7079C148.086 20.7079 148.346 20.6695 148.842 20.6157V17.1504H151.393V26.0327H148.842V22.5674Z" fill="#004E9E"/>
<path d="M153.081 17.1504H158.549V19.2788H155.632V20.5235H158.274V22.4752H155.632V23.8967H158.549V26.025H153.081V17.1504Z" fill="#004E9E"/>
<path d="M166.598 25.6251C165.781 26.1706 164.918 26.2859 164.139 26.2859C161.428 26.2859 159.481 24.4341 159.481 21.5912C159.481 18.6253 161.627 16.8965 164.101 16.8965C164.91 16.8965 165.835 17.0962 166.598 17.6034V20.1774C166.132 19.6472 165.415 19.1094 164.437 19.1094C163.032 19.1094 162.108 20.2004 162.108 21.6603C162.108 23.005 162.978 24.0576 164.437 24.0576C165.384 24.0576 166.132 23.5659 166.598 23.0972V25.6251Z" fill="#004E9E"/>
<path d="M168.064 17.1504H170.615V20.877L173.364 17.1504H176.358L172.899 21.4533L176.45 26.0327H173.258L170.615 22.2139V26.0327H168.064V17.1504Z" fill="#004E9E"/>
<path d="M179.802 17.1504V22.4752L183.331 17.1504H185.828V26.0327H183.369V20.7079L179.841 26.0327H177.343V17.1504H179.802Z" fill="#004E9E"/>
<path d="M189.974 17.1506V22.4753L193.503 17.1506H196V26.0329H193.541V20.7081L190.013 26.0329H187.515V17.1506H189.974ZM194.495 15.245C193.999 16.2823 192.838 16.6665 191.761 16.6665C190.677 16.6665 189.524 16.2823 189.027 15.245L190.486 14.7148C190.723 15.3218 191.296 15.4601 191.761 15.4601C192.227 15.4601 192.8 15.3218 193.037 14.7148L194.495 15.245Z" fill="#004E9E"/>
<path d="M56.3223 31.8633H58.873V35.5899L61.6222 31.8633H64.6159L61.1564 36.1662L64.7075 40.7456H61.5153L58.873 36.9269V40.7456H56.3223V31.8633Z" fill="#004E9E"/>
<path d="M64.5317 36.306C64.5317 33.9318 66.0973 31.6113 69.427 31.6113C72.7566 31.6113 74.3222 33.9318 74.3222 36.306C74.3222 38.6803 72.7566 41.0007 69.427 41.0007C66.0973 40.993 64.5317 38.6726 64.5317 36.306ZM71.6951 36.306C71.6951 34.5926 70.6183 33.7474 69.427 33.7474C68.2433 33.7474 67.1588 34.6002 67.1588 36.306C67.1588 38.0195 68.2356 38.8647 69.427 38.8647C70.6107 38.8647 71.6951 38.0118 71.6951 36.306Z" fill="#004E9E"/>
<path d="M76.1933 31.8633H78.744L80.3477 37.2803L81.9514 31.8633H84.5021L85.831 40.7456H83.3872L82.7075 35.5976L81.1725 40.7456H79.5306L77.9956 35.5976L77.3159 40.7456H74.8721L76.1933 31.8633Z" fill="#004E9E"/>
<path d="M86.9233 31.8633H93.6513V33.9917H89.474V35.321H90.8181C91.5054 35.321 94.3998 35.3056 94.3998 37.9872C94.3998 40.7687 91.4825 40.738 90.8181 40.738H86.9233V31.8633ZM90.5661 38.963C91.3603 38.963 91.8414 38.7325 91.8414 38.0256C91.8414 37.3264 91.3756 37.0959 90.5661 37.0959H89.474V38.963H90.5661Z" fill="#004E9E"/>
<path d="M98.0499 31.8633V37.1881L101.578 31.8633H104.075V40.7456H101.616V35.4209L98.0881 40.7456H95.5908V31.8633H98.0499Z" fill="#004E9E"/>
<path d="M105.771 31.8633H108.322V35.0597H111.422V31.8633H113.973V40.7456H111.422V37.1881H108.322V40.738H105.771V31.8633Z" fill="#004E9E"/>
<path d="M118.104 31.8633H121.205L124.443 40.7456H121.709L121.205 39.2089H118.104L117.6 40.7456H114.866L118.104 31.8633ZM118.616 37.2496H120.701L119.662 33.9763L118.616 37.2496Z" fill="#004E9E"/>
<path d="M125.963 33.9917H123.954V31.8633H130.514V33.9917H128.513V40.738H125.963V33.9917Z" fill="#004E9E"/>
</g>
<defs>
<clipPath id="clip0_3013_6174">
<rect width="50" height="40" fill="white" transform="translate(0 1)"/>
</clipPath>
<clipPath id="clip1_3013_6174">
<rect width="141" height="41" fill="white" transform="translate(55)"/>
</clipPath>
</defs>
</svg>
