<svg width="201" height="109" viewBox="0 0 201 109" fill="none" xmlns="http://www.w3.org/2000/svg">
<g clip-path="url(#clip0_3014_6185)">
<path d="M100.5 0C40.0442 0 0 21.9885 0 54.5C0 87.0115 39.9663 109 100.5 109C161.034 109 201 86.6189 201 54.5C201 22.3811 161.345 0 100.5 0ZM100.5 103.974C43.7058 103.974 5.76512 84.0274 5.76512 54.5C5.76512 24.9726 43.7058 5.02594 100.5 5.02594C157.294 5.02594 195.235 24.6585 195.235 54.5C195.235 84.3415 157.606 103.974 100.5 103.974ZM100.5 9.81628C47.0558 9.81628 11.4523 27.7997 11.4523 54.5C11.4523 81.2003 47.0558 99.1837 100.5 99.1837C153.944 99.1837 189.548 81.2003 189.548 54.5C189.548 27.7997 153.944 9.81628 100.5 9.81628ZM100.5 98.2413C47.757 98.2413 12.4651 80.6506 12.4651 54.5785C12.4651 28.5065 47.757 10.9157 100.5 10.9157C153.243 10.9157 188.535 28.5065 188.535 54.5785C188.535 80.6506 153.243 98.2413 100.5 98.2413Z" fill="#003399"/>
<path d="M47.3722 39.0039V50.6294H37.3072V39.0039H26.8521V69.9791H37.3072V58.3537H47.3722V69.9791H57.8273V39.0039H47.3722Z" fill="#003399"/>
<path d="M173.926 39.0039H164.563H163.159L156.449 50.6294H153.406V39.0039H142.951V69.9791H153.406V58.3537H156.449L163.159 69.9791H164.563H173.926L164.953 54.4525L173.926 39.0039Z" fill="#003399"/>
<path d="M127.502 39.0039L118.529 54.4525L109.635 39.0039H99.96V69.9791H109.635V55.2327L113.848 62.5669L116.345 66.8582H120.792L123.289 62.5669L127.502 55.2327V69.9791H137.177V39.0039H127.502Z" fill="#003399"/>
<path d="M67.3461 39.0039L66.7999 54.4525C66.6439 58.8218 65.7856 62.1768 62.8207 62.1768H61.6504V69.9011H65.7076C73.0418 69.9011 75.6946 63.3471 76.0067 54.7646L76.3188 46.7282H83.6529V69.9791H94.108V39.0039H67.2681H67.3461Z" fill="#003399"/>
</g>
<defs>
<clipPath id="clip0_3014_6185">
<rect width="201" height="109" fill="white"/>
</clipPath>
</defs>
</svg>
