<svg xmlns="http://www.w3.org/2000/svg" viewBox="0 0 238 74" id="logo_ru">
<path fill="#002f6c" d="M15.6008 63.1169C5.49109 63.1169 0 55.8327 0 46.7058C0 37.4858 6.46344 29.9222 17.076 29.9222C19.8931 29.9222 22.3373 30.2914 24.4618 31.399V37.3461C21.6447 35.6864 19.387 35.3604 17.3091 35.3604C10.1097 35.3604 7.45243 40.6656 7.45243 46.2435C7.45243 52.4667 10.799 57.3993 16.6597 57.3993C19.2471 57.3993 21.3283 56.6842 23.8191 55.3471L25.614 60.1667C21.8811 62.5182 18.691 63.1169 15.6008 63.1169ZM129.282 63.1169C121.803 63.1169 117.974 57.6321 117.974 51.0863C117.974 43.7555 123.052 38.9127 129.835 38.9127C132.835 38.9127 134.404 39.5114 135.649 40.2498V45.5084C133.987 44.3077 132.649 43.8919 130.804 43.8919C126.974 43.8919 124.507 46.7058 124.507 50.7637C124.507 54.4058 126.418 57.9548 130.711 57.9548C131.909 57.9548 133.498 57.4359 135.203 56.5611L136.801 60.905C134.866 62.1956 131.636 63.1169 129.282 63.1169ZM150.084 44.6303V62.6579H143.438V44.6303H136.978V39.375H157.38L155.938 44.6303H150.084ZM182.225 42.0958C182.225 50.2082 181.902 54.4524 180.427 56.3882C179.688 57.3561 178.535 58.0047 177.333 58.1843L179.178 63.1169C180.7 63.0704 183.057 62.4251 184.672 60.8119C186.797 58.7364 187.486 56.1088 187.809 53.3414C188.086 50.9899 188.272 48.2259 188.272 45.7812V44.627H193.47V62.6546H200.117V39.3717H182.225V42.0958ZM106.861 38.9127C104.277 38.9127 102.293 40.16 100.585 41.4971L99.8453 39.375H94.2609V74L100.908 71.9711V62.149C102.11 62.7943 103.678 63.1169 105.386 63.1169C112.263 63.1169 116.415 57.2629 116.415 50.3479C116.415 42.9706 112.216 38.9127 106.861 38.9127ZM103.771 58.324C102.569 58.324 101.647 57.9082 100.908 57.4026V46.3832C101.693 45.1858 103.771 43.7556 105.523 43.7556C108.2 43.7556 109.769 45.4619 109.769 50.2581C109.769 54.2229 108.293 58.324 103.771 58.324ZM166.93 38.9127C163.79 38.9127 160.75 39.3983 157.56 41.4605L159.575 45.4785C161.14 44.5971 163.154 43.9119 165.512 43.9119C167.816 43.9119 169.878 44.9297 169.878 47.3777V47.7735L165.848 47.9265C159.968 48.1227 155.995 50.6706 155.995 55.5699C155.995 60.18 159.325 63.1169 163.74 63.1169C166.737 63.1169 168.795 61.9927 170.314 60.619L171.346 62.6579H176.547V47.5374C176.547 41.4106 173.114 38.9127 166.93 38.9127ZM169.878 56.8937C169.241 57.3827 167.913 57.9714 166.148 57.9714C163.887 57.9714 162.615 56.8438 162.615 55.0843C162.615 53.3182 163.987 52.3403 166.834 52.2405L169.878 52.144V56.8937ZM213.027 46.9353H209.61V38.3606L202.964 40.14V62.6579H211.459C217.642 62.6579 223.413 60.9949 223.413 54.5887C223.413 49.1505 218.751 46.9353 213.027 46.9353ZM211.918 58.0645H209.61V51.5653H211.828C214.179 51.5653 216.767 51.9345 216.767 54.6985C216.767 57.4193 214.549 58.0645 211.918 58.0645ZM64.4013 49.9787V49.7925C66.5691 49.3335 68.3706 47.9032 68.3706 44.8598C68.3706 41.2277 65.317 39.9039 62.3167 39.5014C61.3977 39.3784 59.383 39.375 58.2608 39.375H48.7605V62.6579H56.7391C57.6215 62.6579 58.9368 62.6546 59.9624 62.6247C64.1582 62.4251 69.3396 60.9283 69.3396 55.5101C69.3396 52.1906 67.5381 50.5309 64.4013 49.9787ZM55.5369 43.8088H58.2608C60.9814 43.8088 62.0004 44.6403 62.0004 46.0705C62.0004 47.8666 60.3387 48.4188 57.5682 48.4188H55.5369V43.8088ZM58.121 58.2408H55.3971V52.5232H57.798C60.9814 52.5232 62.6897 53.2616 62.6897 55.3371C62.6897 57.549 60.4286 58.2408 58.121 58.2408ZM46.5727 50.8103C46.5727 43.6158 42.1405 38.9127 35.7703 38.9127C28.8008 38.9127 24.8781 44.5372 24.8781 51.0863C24.8781 57.2164 28.2946 63.1169 36.6028 63.1169C39.4166 63.1169 42.5535 62.475 45.7868 60.4427L44.3083 56.2485C41.6777 57.4958 39.9694 57.9082 37.7084 57.9082C34.6148 57.9082 31.6612 55.9724 31.5213 52.8359H46.5727V50.8103ZM31.3848 48.2758C31.3848 46.1537 32.9099 43.7556 35.5839 43.7556C38.4043 43.7556 39.6464 46.0606 39.7863 48.2758H31.3848ZM92.3595 50.8103C92.3595 43.6158 87.9274 38.9127 81.5572 38.9127C74.5876 38.9127 70.6649 44.5372 70.6649 51.0863C70.6649 57.2164 74.0814 63.1169 82.3897 63.1169C85.2035 63.1169 88.3436 62.475 91.5737 60.4427L90.0952 56.2485C87.4678 57.4958 85.7562 57.9082 83.4952 57.9082C80.405 57.9082 77.4514 55.9724 77.3115 52.8359H92.3595V50.8103ZM77.1716 48.2758C77.1716 46.1537 78.6967 43.7556 81.3707 43.7556C84.1878 43.7556 85.4332 46.0606 85.5731 48.2758H77.1716Z"></path>
<path fill="#002f6c" d="M235.244 22.9274C234.865 23.1901 234.475 23.3963 234.079 23.5227C232.764 23.9385 231.142 23.556 229.687 22.9573C228.648 22.5282 227.559 21.9728 226.417 21.2709C227.013 19.8174 227.572 18.1577 228.048 16.3217C228.788 13.4712 229.141 10.96 229.214 8.75474C229.261 7.39103 229.194 6.14373 229.044 5.00952C228.838 3.44957 228.358 1.86301 227.339 0.928367C227.016 0.638994 226.623 0.396185 226.184 0.196618C228.265 -0.0295585 230.113 -0.0461875 231.745 0.073553C233.46 0.219902 235.204 0.64232 236.223 1.64016C237.242 2.63799 237.692 4.37756 237.872 6.08386C238.038 7.71366 238.052 9.55966 237.858 11.6485C237.662 13.7073 237.262 15.9957 236.606 18.5335H236.61C236.197 20.1035 235.724 21.6036 235.244 22.9274ZM210.113 21.6368C210.073 21.1778 210.09 20.7354 210.18 20.3296C210.476 18.9826 211.618 17.7752 212.867 16.8106C213.76 16.1288 214.782 15.4635 215.964 14.8249C216.926 16.0689 218.085 17.3794 219.44 18.7098C221.542 20.7754 223.543 22.3353 225.418 23.4994C226.577 24.2212 227.689 24.7867 228.748 25.2257C230.203 25.8244 231.818 26.2069 233.14 25.7911C233.553 25.6548 233.959 25.4386 234.352 25.1592C233.506 27.0717 232.597 28.6815 231.678 30.032C230.692 31.4422 229.457 32.7427 228.082 33.1219C226.706 33.5044 224.975 33.0255 223.406 32.327C221.911 31.6584 220.303 30.7437 218.588 29.533C216.903 28.3356 215.115 26.8455 213.243 25.0062C212.088 23.872 211.019 22.7145 210.113 21.6368ZM223.763 0.539211C224.182 0.735452 224.555 0.971607 224.862 1.251C225.881 2.18232 226.357 3.77553 226.57 5.33548C226.716 6.44641 226.78 7.6671 226.743 9.00752C225.181 9.21707 223.466 9.56299 221.635 10.0719C218.794 10.8568 216.44 11.8081 214.492 12.8492C213.287 13.4911 212.238 14.1697 211.332 14.8682C210.083 15.8261 208.944 17.0335 208.645 18.3839C208.555 18.8096 208.538 19.2686 208.588 19.7476C207.353 18.0612 206.41 16.468 205.701 14.9979C204.969 13.4412 204.462 11.7216 204.819 10.3413C205.175 8.96096 206.457 7.70036 207.846 6.69587C209.174 5.73462 210.769 4.79998 212.677 3.92521C214.559 3.06707 216.747 2.26547 219.274 1.56698C220.839 1.12793 222.378 0.785344 223.763 0.539211Z"></path>
</svg>