<svg width="80" height="80" viewBox="0 0 80 80" fill="none" xmlns="http://www.w3.org/2000/svg">
<g clip-path="url(#clip0_3013_6175)">
<path d="M0.173828 0.189453V79.4153H79.3996V0.189453H0.173828ZM77.1574 77.173H2.41607V2.43169H77.1574V77.173Z" fill="black"/>
<path d="M3 14.9215C3.02473 14.9211 3.04922 14.9221 3.07396 14.9218V14.9121C3.04946 14.9155 3.02449 14.918 3 14.9215Z" fill="black"/>
<path d="M66.0229 77.5221C68.3215 60.9896 65.2033 41.1867 52.3835 28.475C39.5742 15.773 19.7359 12.6543 3.07373 14.9131V14.9228C19.1482 14.7464 33.578 23.4169 45.6398 35.3706C57.7143 47.334 66.227 61.5622 66.0229 77.5221Z" fill="black"/>
<path d="M8.22559 40.6259H12.8272V52.4399H18.0503V40.6259H22.6436V35.668H8.22559V40.6259Z" fill="black"/>
<path d="M34.1802 48.9407H34.301V62.1132H38.9713V45.3457H31.2607L29.5664 54.5172H29.4721L27.6971 45.3457H19.9629V62.1132H24.4017V48.9407H24.5393L27.1517 62.1132H31.4907L34.1802 48.9407Z" fill="black"/>
<path d="M41.0293 71.7895H46.2483V64.6789H46.3262L49.6808 71.7895H55.9077L50.8857 62.8836L55.4785 55.0156H49.5425L46.3262 61.615H46.2483V55.0156H41.0293V71.7895Z" fill="black"/>
</g>
<defs>
<clipPath id="clip0_3013_6175">
<rect width="80" height="80" fill="white"/>
</clipPath>
</defs>
</svg>
